<?xml version="1.0" encoding="UTF-8"?>
<svg width="24px" height="24px" viewBox="0 0 24 24" version="1.1" xmlns="http://www.w3.org/2000/svg" xmlns:xlink="http://www.w3.org/1999/xlink">
    <!-- Generator: Sketch 57.1 (83088) - https://sketch.com -->
    <title>svg/beans</title>
    <desc>Created with Sketch.</desc>
    <g id="beans" stroke="none" stroke-width="1" fill="none" fill-rule="evenodd">
        <path d="M18.0430019,8.0915279 C18.3901346,7.74439519 18.9593435,7.7507908 19.3143656,8.10581288 C20.911965,9.70341226 20.9407452,12.2648524 19.378648,13.8269496 C18.8636304,14.3419672 18.3693289,14.6390995 17.749126,14.8193732 C17.5505373,14.8770968 17.3482993,14.921719 17.0856983,14.968061 L16.8765434,15.0033715 C16.9545078,14.9907089 16.1444753,15.1176032 15.8889534,15.1622542 C15.4802349,15.2336756 14.9411828,15.7727276 14.8908905,16.1344897 C14.8657304,16.3154716 14.7424428,17.5227779 14.6752969,17.8309154 C14.5385746,18.4583447 14.2601214,18.9454762 13.7217938,19.4838038 C12.1596966,21.045901 9.59825647,21.0171208 8.00065709,19.4195214 C7.64563501,19.0644993 7.6392394,18.4952904 7.98637211,18.1481577 C8.33350481,17.801025 8.90271373,17.8074206 9.25773582,18.1624427 C10.145291,19.0499979 11.5683133,19.0659869 12.4361451,18.1981551 C12.7460024,17.8882978 12.8557652,17.6962766 12.9180244,17.4105643 C12.9598874,17.2184516 13.0723204,16.1174403 13.1098115,15.8477601 C13.2671097,14.7162829 14.3918002,13.5915924 15.5409614,13.3907827 C15.8147297,13.3429432 16.6413476,13.2134508 16.549563,13.2283581 C16.8546458,13.1788077 17.0475271,13.139551 17.2116787,13.0918372 C17.5437941,12.9953015 17.7824712,12.851829 18.0929993,12.5413009 C18.9608311,11.6734691 18.9448421,10.2504468 18.0572869,9.3628916 C17.7022648,9.00786952 17.6958692,8.4386606 18.0430019,8.0915279 Z M10.1413979,4.2443534 C12.0863626,3.15559293 14.4400138,3.23146113 15.8776201,4.66906743 C17.4206602,6.21210745 17.4052113,8.72931849 15.8431141,10.2914157 C15.3280965,10.8064333 14.8371618,11.1069323 14.2244708,11.2947181 C14.0282875,11.354847 13.8287408,11.4021605 13.5698325,11.4521952 L13.3636461,11.4904742 C13.4404954,11.4766965 12.6421278,11.6152557 12.3902066,11.6635074 C11.9872476,11.7406882 11.4481955,12.2797403 11.3925848,12.6361839 C11.3647639,12.8145051 11.2229662,14.0033014 11.1517053,14.3073238 C11.006604,14.9263741 10.7245875,15.4099423 10.1862599,15.9482699 C8.62416271,17.5103671 6.10695166,17.5258159 4.56391164,15.9827759 C3.20458504,14.6234493 3.24251493,12.3615189 4.14362401,10.2831635 C5.17950763,7.89395849 7.16039353,5.91307259 10.1413979,4.2443534 Z M5.76342049,10.9692254 C5.11885132,12.4558865 5.09299687,13.9977037 5.82099036,14.7256972 C6.67823482,15.5829417 8.0766854,15.574359 8.94451716,14.7065272 C9.25437445,14.3966699 9.3655419,14.2060532 9.43161665,13.9241565 C9.47604525,13.7346094 9.60535863,12.6504785 9.64681437,12.384763 C9.8207471,11.2699204 10.9454376,10.1452298 12.0784053,9.92822666 C12.3483158,9.8765293 13.16303,9.73513316 13.0725581,9.75135316 C13.3732776,9.69743949 13.5635357,9.65555954 13.7256991,9.60585752 C14.0537918,9.50529926 14.2908433,9.36020109 14.6013714,9.04967294 C15.4692032,8.18184118 15.4777859,6.7833906 14.6205414,5.92614615 C13.7949136,5.1005183 12.2966661,5.05222341 10.9900172,5.78366484 C8.32950339,7.27297846 6.62849096,8.97399089 5.76342049,10.9692254 Z" id="Shape" fill="#000000" fill-rule="nonzero"></path>
    </g>
</svg>