<?xml version="1.0" encoding="UTF-8"?>
<svg width="24px" height="24px" viewBox="0 0 24 24" version="1.1" xmlns="http://www.w3.org/2000/svg" xmlns:xlink="http://www.w3.org/1999/xlink">
    <!-- Generator: Sketch 57.1 (83088) - https://sketch.com -->
    <title>svg/bell</title>
    <desc>Created with Sketch.</desc>
    <g id="bell" stroke="none" stroke-width="1" fill="none" fill-rule="evenodd">
        <path d="M12,0.5 C13.1045695,0.5 14,1.3954305 14,2.5 C14,2.59697653 13.9930979,2.69234099 13.9797582,2.78562895 C16.8818072,3.63814537 19,6.32170747 19,9.5 L19,18.5 L21,18.5 L21,20.5 L15,20.5 C15,22.1568542 13.6568542,23.5 12,23.5 C10.3431458,23.5 9,22.1568542 9,20.5 L3,20.5 L3,18.5 L5,18.5 L5,9.5 C5,6.32170747 7.11819276,3.63814537 10.0199049,2.78398706 C10.0069021,2.69234099 10,2.59697653 10,2.5 C10,1.3954305 10.8954305,0.5 12,0.5 Z M13,20.5 L11,20.5 C11,21.0522847 11.4477153,21.5 12,21.5 C12.5522847,21.5 13,21.0522847 13,20.5 Z M12,4.5 C9.23857625,4.5 7,6.73857625 7,9.5 L7,18.5 L17,18.5 L17,9.5 C17,6.73857625 14.7614237,4.5 12,4.5 Z" id="Shape" fill="#000000"></path>
    </g>
</svg>