<?xml version="1.0" encoding="UTF-8"?>
<svg width="24px" height="24px" viewBox="0 0 24 24" version="1.1" xmlns="http://www.w3.org/2000/svg" xmlns:xlink="http://www.w3.org/1999/xlink">
    <!-- Generator: Sketch 57.1 (83088) - https://sketch.com -->
    <title>svg/box</title>
    <desc>Created with Sketch.</desc>
    <g id="box" stroke="none" stroke-width="1" fill="none" fill-rule="evenodd">
        <path d="M5,8.63939346 L5,16.2723712 L11,19.3606065 L11,11.7276288 L5,8.63939346 Z M19,8.63939346 L13,11.7276288 L13,19.3606065 L19,16.2723712 L19,8.63939346 Z M8.05,6.093 L6.23606798,7 L12,9.88196601 L13.813,8.975 L8.05,6.093 Z M12,4.11803399 L10.287,4.975 L16.05,7.856 L17.763932,7 L12,4.11803399 Z M3.00407156,6.90868559 L3.0092203,6.8616978 C3.01217176,6.840999 3.0157663,6.81960095 3.02004615,6.79832388 C3.02338234,6.78080873 3.02719487,6.76415338 3.03141021,6.7476931 C3.03548828,6.73234748 3.0399938,6.71629744 3.04490164,6.7003537 C3.05225434,6.67637043 3.06035199,6.65340377 3.0692357,6.63089207 C3.07289202,6.62120934 3.07685385,6.61151471 3.08097283,6.60187584 C3.09106467,6.57911069 3.10176554,6.55674448 3.11324318,6.53490333 C3.11988483,6.52089694 3.12759197,6.506894 3.13565888,6.49305629 C3.14462828,6.47936604 3.15294335,6.46601156 3.16155481,6.45288814 C3.23684989,6.33526007 3.34048814,6.23136962 3.47138895,6.15081811 C3.49306486,6.13765564 3.51482867,6.12521015 3.5370291,6.11358086 L3.54487993,6.10956254 L11.5527864,2.10557281 C11.8343139,1.96480906 12.1656861,1.96480906 12.4472136,2.10557281 L20.4472136,6.10557281 L20.454,6.109 L20.4629709,6.11358086 C20.4851713,6.12521015 20.5069351,6.13765564 20.5282118,6.15088651 L20.461,6.113 L20.5673385,6.17586071 C20.6801144,6.25243776 20.7708435,6.34709675 20.8395258,6.45276792 L20.8633785,6.49294432 C20.872408,6.506894 20.8801152,6.52089694 20.8874625,6.53505037 C20.8982345,6.55674448 20.9089353,6.57911069 20.9188146,6.60197464 C20.9231461,6.61151471 20.927108,6.62120934 20.9309127,6.63095547 C20.939648,6.65340377 20.9477457,6.67637043 20.9550167,6.69976731 L20.9621482,6.72427356 L20.9686149,6.7484864 C20.9728051,6.76415338 20.9766177,6.78080873 20.9800143,6.79765115 C20.9842337,6.81960095 20.9878282,6.840999 20.9907375,6.86247928 C20.9917838,6.86913345 20.9927079,6.87660181 20.9935512,6.88410226 L20.9963659,6.91371963 C20.997884,6.93170299 20.9989265,6.94972211 20.9994933,6.96775458 L21,7 L21,16.8823529 C21,17.2152974 20.8346116,17.5234278 20.5639562,17.7081818 L20.4576434,17.7714888 L12.4576434,21.8891358 C12.444756,21.895769 12.4318211,21.9020926 12.4188455,21.9081106 C12.4020818,21.9159724 12.3846423,21.9234824 12.3669935,21.9305004 L12.3186519,21.9483386 C12.3011691,21.9542584 12.2830828,21.9598497 12.2648306,21.9649298 C12.2484615,21.9695916 12.2324408,21.9736288 12.2164105,21.9772475 C12.1958513,21.9817597 12.1744566,21.9858656 12.1529012,21.9892674 C12.1408094,21.9913072 12.129107,21.9929285 12.1174125,21.9943348 C12.0942277,21.9970238 12.0705111,21.9990396 12.046667,22.0001904 L12.0231257,22.0010634 L12.0000789,22.001332 C11.985292,22.001332 11.9696224,22.0010049 11.9539212,22.0002747 C11.9294889,21.9990396 11.9057723,21.9970238 11.8822241,21.9941679 C11.870893,21.9929285 11.8591906,21.9913072 11.8474848,21.9894678 C11.8255434,21.9858656 11.8041487,21.9817597 11.7829471,21.9769694 C11.7675592,21.9736288 11.7515385,21.9695916 11.7355392,21.9651285 C11.7169172,21.9598497 11.6988309,21.9542584 11.680932,21.9481693 C11.6652788,21.9428572 11.6492451,21.9369343 11.6332591,21.9305627 C11.6153577,21.9234824 11.5979182,21.9159724 11.5807099,21.9079838 L11.5423566,21.8891358 L3.54235657,17.7714888 C3.20931966,17.6000727 3,17.2569154 3,16.8823529 L3,6.98164309 L3.00146772,6.94513329 L3.00233388,6.93000482 L3.002,6.94 L3.004,6.913 L3.00407156,6.90868559 Z" id="Shape" fill="#000000" fill-rule="nonzero"></path>
    </g>
</svg>