<?xml version="1.0" encoding="UTF-8"?>
<svg width="24px" height="24px" viewBox="0 0 24 24" version="1.1" xmlns="http://www.w3.org/2000/svg" xmlns:xlink="http://www.w3.org/1999/xlink">
    <!-- Generator: Sketch 57.1 (83088) - https://sketch.com -->
    <title>svg/cake</title>
    <desc>Created with Sketch.</desc>
    <g id="cake" stroke="none" stroke-width="1" fill="none" fill-rule="evenodd">
        <path d="M5,15 C5,14.5 8.5,14 12,14 C15.5,14 19,14.5 19,15 C19,15.5 17.5,21.5 17,22 C16.5,22.5 14.5,23 12,23 C9.5,23 7.5,22.5 7,22 C6.5,21.5 5,15.5 5,15 Z" id="Rectangle" stroke="#000000" stroke-width="2" stroke-linecap="round"></path>
        <rect id="Rectangle" stroke="#000000" stroke-width="2" stroke-linecap="round" x="10" y="10" width="4" height="4" rx="0.5"></rect>
        <path d="M12,10 L12,8.33333333" id="Line" stroke="#000000" stroke-width="2" stroke-linecap="square"></path>
        <path d="M12,8 C13.1045695,8 14,7.1045695 14,6 C14,5.26362033 13.3333333,3.930287 12,2 C10.6666667,3.930287 10,5.26362033 10,6 C10,7.1045695 10.8954305,8 12,8 Z" id="Oval" stroke="#000000" stroke-width="2" stroke-linecap="round"></path>
    </g>
</svg>