<?xml version="1.0" encoding="UTF-8"?>
<svg width="24px" height="24px" viewBox="0 0 24 24" version="1.1" xmlns="http://www.w3.org/2000/svg" xmlns:xlink="http://www.w3.org/1999/xlink">
    <!-- Generator: Sketch 57.1 (83088) - https://sketch.com -->
    <title>svg/camera</title>
    <desc>Created with Sketch.</desc>
    <g id="camera" stroke="none" stroke-width="1" fill="none" fill-rule="evenodd">
        <path d="M14.4648162,3 C15.1335226,3 15.7579853,3.33420227 16.1289992,3.89072313 L16.8682792,5 L20,5 C21.1045695,5 22,5.8954305 22,7 L22,19 C22,20.1045695 21.1045695,21 20,21 L4,21 C2.8954305,21 2,20.1045695 2,19 L2,7 C2,5.8954305 2.8954305,5 4,5 L7.13100715,5 L7.87108317,3.89059961 C8.24201473,3.33420227 8.86647738,3 9.53518376,3 L14.4648162,3 Z M14.4648162,5 L9.53518376,5 L8.20099286,7 L4,7 L4,19 L20,19 L20,7 L15.7977208,7 L15.5008674,6.55457667 L14.4648162,5 Z M12,9 C14.209139,9 16,10.790861 16,13 C16,15.209139 14.209139,17 12,17 C9.790861,17 8,15.209139 8,13 C8,10.790861 9.790861,9 12,9 Z M12,11 C10.8954305,11 10,11.8954305 10,13 C10,14.1045695 10.8954305,15 12,15 C13.1045695,15 14,14.1045695 14,13 C14,11.8954305 13.1045695,11 12,11 Z" id="Shape" fill="#000000" fill-rule="nonzero"></path>
        <circle id="Oval" fill="#000000" cx="6" cy="9" r="1"></circle>
    </g>
</svg>