<?xml version="1.0" encoding="UTF-8"?>
<svg width="24px" height="24px" viewBox="0 0 24 24" version="1.1" xmlns="http://www.w3.org/2000/svg" xmlns:xlink="http://www.w3.org/1999/xlink">
    <!-- Generator: Sketch 57.1 (83088) - https://sketch.com -->
    <title>svg/corn</title>
    <desc>Created with Sketch.</desc>
    <g id="corn" stroke="none" stroke-width="1" fill="none" fill-rule="evenodd">
        <path d="M10.7750617,23.9958615 C7.56557489,23.8775718 5,21.2383969 5,18 L5,15 L7,15 C9.08751516,15 10.9260374,16.0660653 12.0008411,17.6834702 C13.0739626,16.0660653 14.9124848,15 17,15 L19,15 L19,18 C19,21.2383969 16.4344251,23.8775718 13.2249383,23.9958615 L13,24 L11,24 L10.7750617,23.9958615 Z M17,17 C14.790861,17 13,18.790861 13,21 L13,22 C15.209139,22 17,20.209139 17,18 L17,17 Z M7,17 L7,18 C7,20.209139 8.790861,22 11,22 L11,21 L10.9951047,20.8003597 C10.8910789,18.6839685 9.14219539,17 7,17 Z M9,12 C9.55228475,12 10,12.4477153 10,13 C10,13.5522847 9.55228475,14 9,14 C8.44771525,14 8,13.5522847 8,13 C8,12.4477153 8.44771525,12 9,12 Z M12,12 C12.5522847,12 13,12.4477153 13,13 C13,13.5522847 12.5522847,14 12,14 C11.4477153,14 11,13.5522847 11,13 C11,12.4477153 11.4477153,12 12,12 Z M15,12 C15.5522847,12 16,12.4477153 16,13 C16,13.5522847 15.5522847,14 15,14 C14.4477153,14 14,13.5522847 14,13 C14,12.4477153 14.4477153,12 15,12 Z M9,9 C9.55228475,9 10,9.44771525 10,10 C10,10.5522847 9.55228475,11 9,11 C8.44771525,11 8,10.5522847 8,10 C8,9.44771525 8.44771525,9 9,9 Z M12,9 C12.5522847,9 13,9.44771525 13,10 C13,10.5522847 12.5522847,11 12,11 C11.4477153,11 11,10.5522847 11,10 C11,9.44771525 11.4477153,9 12,9 Z M15,9 C15.5522847,9 16,9.44771525 16,10 C16,10.5522847 15.5522847,11 15,11 C14.4477153,11 14,10.5522847 14,10 C14,9.44771525 14.4477153,9 15,9 Z M9,6 C9.55228475,6 10,6.44771525 10,7 C10,7.55228475 9.55228475,8 9,8 C8.44771525,8 8,7.55228475 8,7 C8,6.44771525 8.44771525,6 9,6 Z M12,6 C12.5522847,6 13,6.44771525 13,7 C13,7.55228475 12.5522847,8 12,8 C11.4477153,8 11,7.55228475 11,7 C11,6.44771525 11.4477153,6 12,6 Z M15,6 C15.5522847,6 16,6.44771525 16,7 C16,7.55228475 15.5522847,8 15,8 C14.4477153,8 14,7.55228475 14,7 C14,6.44771525 14.4477153,6 15,6 Z M9,3 C9.55228475,3 10,3.44771525 10,4 C10,4.55228475 9.55228475,5 9,5 C8.44771525,5 8,4.55228475 8,4 C8,3.44771525 8.44771525,3 9,3 Z M12,3 C12.5522847,3 13,3.44771525 13,4 C13,4.55228475 12.5522847,5 12,5 C11.4477153,5 11,4.55228475 11,4 C11,3.44771525 11.4477153,3 12,3 Z M15,3 C15.5522847,3 16,3.44771525 16,4 C16,4.55228475 15.5522847,5 15,5 C14.4477153,5 14,4.55228475 14,4 C14,3.44771525 14.4477153,3 15,3 Z M10.4,0 C10.9522847,0 11.4,0.44771525 11.4,1 C11.4,1.55228475 10.9522847,2 10.4,2 C9.84771525,2 9.4,1.55228475 9.4,1 C9.4,0.44771525 9.84771525,0 10.4,0 Z M13.4,0 C13.9522847,0 14.4,0.44771525 14.4,1 C14.4,1.55228475 13.9522847,2 13.4,2 C12.8477153,2 12.4,1.55228475 12.4,1 C12.4,0.44771525 12.8477153,0 13.4,0 Z" id="Shape" fill="#000000"></path>
    </g>
</svg>