<?xml version="1.0" encoding="UTF-8"?>
<svg width="24px" height="24px" viewBox="0 0 24 24" version="1.1" xmlns="http://www.w3.org/2000/svg" xmlns:xlink="http://www.w3.org/1999/xlink">
    <!-- Generator: Sketch 57.1 (83088) - https://sketch.com -->
    <title>svg/countdown</title>
    <desc>Created with Sketch.</desc>
    <g id="countdown" stroke="none" stroke-width="1" fill="none" fill-rule="evenodd">
        <path d="M12,4 C16.9705627,4 21,8.02943725 21,13 C21,17.9705627 16.9705627,22 12,22 C7.02943725,22 3,17.9705627 3,13 C3,8.02943725 7.02943725,4 12,4 Z M12,6 C8.13400675,6 5,9.13400675 5,13 C5,16.8659932 8.13400675,20 12,20 C15.8659932,20 19,16.8659932 19,13 C19,9.13400675 15.8659932,6 12,6 Z M12,8 C12.5522847,8 13,8.44771525 13,9 L13,12.5855536 L14.7071068,14.2928932 C15.0976311,14.6834175 15.0976311,15.3165825 14.7071068,15.7071068 C14.3165825,16.0976311 13.6834175,16.0976311 13.2928932,15.7071068 L11.2928932,13.7071068 L11.2196888,13.625449 L11.2166092,13.6215925 L11.2928932,13.7071068 C11.2534285,13.667642 11.2179519,13.6256994 11.1864634,13.5817796 C11.1722671,13.5618533 11.158427,13.5409505 11.1453705,13.5195178 C11.1373292,13.506481 11.1296708,13.4932217 11.1223417,13.4798302 C11.1122359,13.4612285 11.1026884,13.4424105 11.0937299,13.4232619 C11.0849726,13.4045951 11.0768053,13.3855721 11.0692553,13.3663626 C11.0628807,13.3502364 11.0568102,13.3335527 11.0511777,13.3166686 C11.045141,13.2983389 11.0397255,13.2803548 11.0348268,13.26226 C11.0293235,13.2423102 11.024389,13.2215439 11.020113,13.2005383 C11.0168123,13.1838973 11.0138527,13.1672085 11.0113186,13.1504677 C11.0081684,13.1300481 11.0057272,13.1096353 11.0039103,13.0890432 C11.0019146,13.0662157 11.0006589,13.0431238 11.0001991,13.0200189 C11.0000667,13.0134712 11,13.0067434 11,13 L11,9 C11,8.44771525 11.4477153,8 12,8 Z M16.2679492,1.60769515 L19.7320508,3.60769515 C20.2103434,3.88383753 20.3742186,4.49542793 20.0980762,4.97372056 C19.8219338,5.45201318 19.2103434,5.61588834 18.7320508,5.33974596 L15.2679492,3.33974596 C14.7896566,3.06360359 14.6257814,2.45201318 14.9019238,1.97372056 C15.1780662,1.49542793 15.7896566,1.33155278 16.2679492,1.60769515 Z M9.09807621,1.97372056 C9.37421859,2.45201318 9.21034343,3.06360359 8.73205081,3.33974596 L5.26794919,5.33974596 C4.78965657,5.61588834 4.17806616,5.45201318 3.90192379,4.97372056 C3.62578141,4.49542793 3.78965657,3.88383753 4.26794919,3.60769515 L7.73205081,1.60769515 C8.21034343,1.33155278 8.82193384,1.49542793 9.09807621,1.97372056 Z" id="Shape" fill="#000000" fill-rule="nonzero"></path>
    </g>
</svg>