<?xml version="1.0" encoding="UTF-8"?>
<svg width="24px" height="24px" viewBox="0 0 24 24" version="1.1" xmlns="http://www.w3.org/2000/svg" xmlns:xlink="http://www.w3.org/1999/xlink">
    <!-- Generator: Sketch 57.1 (83088) - https://sketch.com -->
    <title>svg/cubes</title>
    <desc>Created with Sketch.</desc>
    <g id="cubes" stroke="none" stroke-width="1" fill="none" fill-rule="evenodd">
        <path d="M12.4472136,1.10557281 L17.4472136,3.60557281 L17.4645717,3.61441434 C17.4895206,3.62754204 17.513914,3.64170172 17.5376804,3.65684916 L17.4472136,3.60557281 C17.487589,3.6257605 17.5257526,3.6479986 17.5617045,3.67206246 C17.5917231,3.69296527 17.6210748,3.71524481 17.6491589,3.73908319 C17.7293735,3.80523676 17.7953741,3.8821974 17.8478193,3.96575157 C17.8507521,3.97216304 17.8547004,3.97854951 17.858579,3.98498716 C17.8710743,4.00426421 17.881894,4.02394073 17.8920039,4.0439081 C17.9007831,4.06224714 17.9097887,4.08127945 17.9182029,4.10066965 C17.9228687,4.11083625 17.9269748,4.12086828 17.9309127,4.13095547 C17.9405836,4.15585822 17.949543,4.18159462 17.957463,4.20786324 C17.9604518,4.21815784 17.9631898,4.22785858 17.9657807,4.23759326 C17.9719957,4.26023642 17.9774465,4.28397804 17.9820461,4.30809463 C17.9851553,4.32532393 17.9879579,4.34237215 17.9903259,4.35947368 C17.9929059,4.37720311 17.9949003,4.39524424 17.9964191,4.4134648 C17.9978562,4.43137327 17.9988881,4.44906136 17.9994617,4.46676272 C17.9998216,4.47760472 18,4.48877272 18,4.5 L18,9.882 L22.4472136,12.1055728 L22.456,12.11 L22.527,12.15 L22.5617045,12.1720625 C22.5917231,12.1929653 22.6210748,12.2152448 22.6491589,12.2390832 C22.7293735,12.3052368 22.7953741,12.3821974 22.8478193,12.4657516 C22.8507521,12.472163 22.8547004,12.4785495 22.858579,12.4849872 C22.8710743,12.5042642 22.881894,12.5239407 22.8920039,12.5439081 C22.9007831,12.5622471 22.9097887,12.5812794 22.9182029,12.6006697 L22.9309127,12.6309555 C22.9405836,12.6558582 22.949543,12.6815946 22.957463,12.7078632 L22.9657807,12.7375933 C22.9719957,12.7602364 22.9774465,12.783978 22.9820461,12.8080946 C22.9851553,12.8253239 22.9879579,12.8423721 22.9903259,12.8594737 L22.9964191,12.9134648 C22.9978562,12.9313733 22.9988881,12.9490614 22.9994617,12.9667627 C23,12.9776047 23,12.9887727 23,13 L23,19 C23,19.3787721 22.7859976,19.7250352 22.4472136,19.8944272 L17.4472136,22.3944272 L17.4091514,22.4126332 L17.382,22.424 L17.388,22.421 L17.348964,22.4372337 L17.3144652,22.4496898 L17.2568494,22.4671201 C17.2417499,22.4712213 17.2270381,22.4748306 17.2123201,22.478088 C17.1978425,22.4812278 17.1828311,22.4841883 17.1677359,22.4868031 C17.143734,22.4910301 17.1203227,22.4942002 17.0969564,22.4965167 C17.0861992,22.4975295 17.0745648,22.4984906 17.0628971,22.4992449 C17.0412345,22.5006588 17.0205738,22.5012911 16.9999887,22.5012911 C16.9800969,22.5012911 16.9591016,22.50068 16.9380547,22.4993541 C16.9254352,22.4984906 16.9138008,22.4975295 16.9022047,22.4963645 C16.8796773,22.4942002 16.856266,22.4910301 16.8328465,22.4869839 L16.8097583,22.4826451 L16.7435534,22.4672543 C16.7235818,22.4618492 16.7042002,22.4559916 16.685032,22.4495633 C16.6661383,22.4431723 16.6467896,22.436014 16.6275098,22.428202 C16.6147528,22.4231374 16.6027469,22.4179992 16.5908486,22.4126332 C16.5785813,22.4069967 16.5656618,22.4008649 16.5527864,22.3944272 L12,20.118 L7.4472136,22.3944272 L7.40915144,22.4126332 L7.382,22.424 L7.388,22.421 C7.35898988,22.4338612 7.3367591,22.4421987 7.3144652,22.4496898 L7.25684939,22.4671201 C7.24174995,22.4712213 7.22703807,22.4748306 7.21232013,22.478088 C7.19784253,22.4812278 7.18283111,22.4841883 7.16773594,22.4868031 C7.14373398,22.4910301 7.12032272,22.4942002 7.09695641,22.4965167 C7.08619917,22.4975295 7.0745648,22.4984906 7.06289706,22.4992449 C7.04123453,22.5006588 7.02057377,22.5012911 6.99998874,22.5012911 C6.98009694,22.5012911 6.95910164,22.50068 6.93805472,22.4993541 C6.9254352,22.4984906 6.91380083,22.4975295 6.90220466,22.4963645 C6.87967728,22.4942002 6.85626602,22.4910301 6.83284651,22.4869839 L6.80975832,22.4826451 L6.74355338,22.4672543 C6.72358181,22.4618492 6.70420023,22.4559916 6.685032,22.4495633 C6.66613829,22.4431723 6.64678956,22.436014 6.62750981,22.428202 C6.61475285,22.4231374 6.60274686,22.4179992 6.59084856,22.4126332 C6.57858132,22.4069967 6.56566185,22.4008649 6.5527864,22.3944272 L1.5527864,19.8944272 C1.21400238,19.7250352 1,19.3787721 1,19 L1,13 L1.001,12.98 L1,12.983 L1,12.9806509 L1.00146724,12.9451422 L1.00241772,12.9288057 L1.003,12.913 L1.003,12.923 L1.00954964,12.8593503 C1.01204209,12.8423721 1.01484473,12.8253239 1.01808208,12.8083486 C1.02255352,12.783978 1.02800427,12.7602364 1.03426819,12.7368932 C1.03690125,12.7275165 1.03974082,12.717476 1.04273803,12.7074762 C1.05078934,12.6805945 1.0597819,12.6548527 1.06975817,12.6296794 L1.08184001,12.5998528 C1.09067143,12.5802793 1.09970728,12.561239 1.10930794,12.5425745 C1.11863966,12.5229439 1.12949455,12.5032579 1.1410607,12.483905 C1.14590788,12.477558 1.14987957,12.4711508 1.15392014,12.4647961 C1.20515424,12.3815817 1.27094478,12.3049689 1.35018247,12.2382781 C1.37892517,12.2152448 1.40827687,12.1929653 1.43873712,12.1723429 C1.44598578,12.1669151 1.45377722,12.1618513 1.46166985,12.1568732 C1.48608602,12.1417017 1.51047945,12.127542 1.53542826,12.1144143 C1.54084491,12.1116131 1.54679127,12.1085704 1.5527864,12.1055728 L6,9.881 L6,4.5 L6.0001824,4.48065093 C6.00062897,4.45696732 6.00189553,4.43329752 6.00398208,4.40969225 L6,4.5 C6,4.4519825 6.00326404,4.40504932 6.00954964,4.35935033 C6.01204209,4.34237215 6.01484473,4.32532393 6.01808208,4.30834859 C6.02255352,4.28397804 6.02800427,4.26023642 6.03426819,4.23689323 C6.0368102,4.22785858 6.03954819,4.21815784 6.0424333,4.20849488 C6.05045696,4.18159462 6.05941637,4.15585822 6.06935873,4.13068895 C6.07302516,4.12086828 6.07713134,4.11083625 6.08140584,4.10086411 C6.0902113,4.08127945 6.09921689,4.06224714 6.10878655,4.04358961 C6.11810598,4.02394073 6.12892573,4.00426421 6.14045529,3.9849194 C6.1452996,3.97854951 6.14924789,3.97216304 6.15326456,3.96582854 C6.20462589,3.8821974 6.27062648,3.80523676 6.35018247,3.73827807 C6.37892517,3.71524481 6.40827687,3.69296527 6.43873712,3.6723429 C6.44598578,3.66691511 6.45377722,3.6618513 6.46166985,3.65687322 C6.48608602,3.64170172 6.51047945,3.62754204 6.53542826,3.61441434 C6.54084491,3.61161315 6.54679127,3.60857037 6.5527864,3.60557281 L11.5527864,1.10557281 C11.8343139,0.964809064 12.1656861,0.964809064 12.4472136,1.10557281 Z M13,14.618034 L13,18.381966 L16,19.881966 L16,16.118034 L13,14.618034 Z M21,14.618034 L18,16.118 L18,19.881 L21,18.381966 L21,14.618034 Z M3,14.618034 L3,18.381966 L6,19.881966 L6,16.118034 L3,14.618034 Z M11,14.618034 L8,16.118 L8,19.881 L11,18.381966 L11,14.618034 Z M17,11.618034 L14.237,13 L17,14.381966 L19.763932,13 L17,11.618034 Z M7,11.618034 L4.237,13 L7,14.381966 L9.76393202,13 L7,11.618034 Z M8,6.11803399 L8,9.88196601 L11,11.381966 L11,7.61803399 L8,6.11803399 Z M16,6.11803399 L13,7.618 L13,11.381 L16,9.88196601 L16,6.11803399 Z M12,3.11803399 L9.237,4.5 L12,5.88196601 L14.763932,4.5 L12,3.11803399 Z" id="Shape" fill="#000000" fill-rule="nonzero"></path>
    </g>
</svg>