<?xml version="1.0" encoding="UTF-8"?>
<svg width="24px" height="24px" viewBox="0 0 24 24" version="1.1" xmlns="http://www.w3.org/2000/svg" xmlns:xlink="http://www.w3.org/1999/xlink">
    <!-- Generator: Sketch 57.1 (83088) - https://sketch.com -->
    <title>svg/distance</title>
    <desc>Created with Sketch.</desc>
    <g id="distance" stroke="none" stroke-width="1" fill="none" fill-rule="evenodd">
        <path d="M21,6 C22.1045695,6 23,6.8954305 23,8 L23,16 C23,17.1045695 22.1045695,18 21,18 L3,18 C1.8954305,18 1,17.1045695 1,16 L1,8 C1,6.8954305 1.8954305,6 3,6 L21,6 Z M19,11 L17,11 L17,8 L15,8 L15,13 L13,13 L13,8 L11,8 L11,11 L9,11 L9,8 L7,8 L7,13 L5,13 L5,8 L3,8 L3,16 L21,16 L21,8 L19,8 L19,11 Z" id="Shape" fill="#000000" fill-rule="nonzero"></path>
    </g>
</svg>