<?xml version="1.0" encoding="UTF-8"?>
<svg width="24px" height="24px" viewBox="0 0 24 24" version="1.1" xmlns="http://www.w3.org/2000/svg" xmlns:xlink="http://www.w3.org/1999/xlink">
    <!-- Generator: Sketch 57.1 (83088) - https://sketch.com -->
    <title>svg/dollar</title>
    <desc>Created with Sketch.</desc>
    <g id="dollar" stroke="none" stroke-width="1" fill="none" fill-rule="evenodd">
        <path d="M12.9,20.84 L11.46,20.84 C11.2943146,20.84 11.16,20.7056854 11.16,20.54 L11.16,18.7 C9.08070327,18.4157796 7.81816982,17.214099 7.23850445,15.9150665 C7.16247836,15.7446917 7.2389631,15.5449443 7.4093379,15.4689182 C7.41718121,15.4654183 7.42515513,15.4622188 7.43323258,15.4592994 L9.20217399,14.8266885 C9.36948776,14.7668437 9.55498628,14.8429134 9.63211919,15.002994 C10.0230717,15.8143719 10.8304893,16.42 12.16,16.42 C13.46,16.42 14.22,15.8 14.22,14.92 C14.22,14.24 13.72,13.72 12.72,13.5 L10.88,13.1 C8.72,12.62 7.38,11.26 7.38,9.34 C7.38,7.22 9.02,5.66 11.16,5.32 L11.16,3.48 C11.16,3.31431458 11.2943146,3.18 11.46,3.18 L12.9,3.18 C13.0656854,3.18 13.2,3.31431458 13.2,3.48 L13.2,5.38 C14.7809375,5.66869293 15.7476647,6.51489979 16.2885416,7.45096829 C16.4095171,7.66033453 16.3378622,7.92812942 16.128496,8.04910493 C16.1219529,8.05288568 16.1153129,8.0564964 16.1085662,8.05990092 L14.6287853,8.81562664 C14.4153662,8.92461281 14.1539707,8.84654034 14.0352866,8.63835827 C13.7228887,8.09038528 13.1278372,7.58 12.04,7.58 C10.76,7.58 10.06,8.32 10.06,9.14 C10.06,9.76 10.5,10.28 11.44,10.48 L13.26,10.9 C15.78,11.46 16.92,12.96 16.92,14.76 C16.92,16.6 15.6,18.3 13.2,18.68 L13.2,20.54 C13.2,20.7056854 13.0656854,20.84 12.9,20.84 Z" id="$-copy" fill="#000000"></path>
    </g>
</svg>