<?xml version="1.0" encoding="UTF-8"?>
<svg width="24px" height="24px" viewBox="0 0 24 24" version="1.1" xmlns="http://www.w3.org/2000/svg" xmlns:xlink="http://www.w3.org/1999/xlink">
    <!-- Generator: Sketch 57.1 (83088) - https://sketch.com -->
    <title>svg/edit</title>
    <desc>Created with Sketch.</desc>
    <g id="edit" stroke="none" stroke-width="1" fill="none" fill-rule="evenodd">
        <path d="M21.0563492,8 L23.1776695,10.1213203 C23.9587181,10.9023689 23.9587181,12.1686989 23.1776695,12.9497475 L12.8569989,23.2704181 C12.4901847,23.6372323 11.9951962,23.847171 11.4765163,23.85592 L8.28463243,23.9100468 C7.71920824,23.9192979 7.25837168,23.4584613 7.2676227,22.8930371 L7.3217495,19.7011532 C7.33049853,19.1824733 7.54043726,18.6874848 7.90725147,18.3206706 L18.2279221,8 C19.0089706,7.21895142 20.2753006,7.21895142 21.0563492,8 Z M19.6421356,9.41421356 L9.32146504,19.7348841 L9.28506893,21.8926006 L11.4427854,21.8562045 L21.763456,11.5355339 L19.6421356,9.41421356 Z M15.5,0.5 C16.0522847,0.5 16.5,0.94771525 16.5,1.5 L16.5,6.5 C16.5,7.05228475 16.0522847,7.5 15.5,7.5 C14.9477153,7.5 14.5,7.05228475 14.5,6.5 L14.5,2.5 L2.5,2.5 L2.5,14.5 L6.5,14.5 C7.05228475,14.5 7.5,14.9477153 7.5,15.5 C7.5,16.0522847 7.05228475,16.5 6.5,16.5 L1.5,16.5 C0.94771525,16.5 0.5,16.0522847 0.5,15.5 L0.5,1.5 C0.5,0.94771525 0.94771525,0.5 1.5,0.5 L15.5,0.5 Z" id="Shape" fill="#000000" fill-rule="nonzero"></path>
    </g>
</svg>