<?xml version="1.0" encoding="UTF-8"?>
<svg width="24px" height="24px" viewBox="0 0 24 24" version="1.1" xmlns="http://www.w3.org/2000/svg" xmlns:xlink="http://www.w3.org/1999/xlink">
    <!-- Generator: Sketch 57.1 (83088) - https://sketch.com -->
    <title>svg/exclamation-circle</title>
    <desc>Created with Sketch.</desc>
    <g id="exclamation-circle" stroke="none" stroke-width="1" fill="none" fill-rule="evenodd">
        <path d="M12,1 C18.0751322,1 23,5.92486775 23,12 C23,18.0751322 18.0751322,23 12,23 C5.92486775,23 1,18.0751322 1,12 C1,5.92486775 5.92486775,1 12,1 Z M12,3 C7.02943725,3 3,7.02943725 3,12 C3,16.9705627 7.02943725,21 12,21 C16.9705627,21 21,16.9705627 21,12 C21,7.02943725 16.9705627,3 12,3 Z M12,15 C12.5522847,15 13,15.4477153 13,16 C13,16.5522847 12.5522847,17 12,17 C11.4477153,17 11,16.5522847 11,16 C11,15.4477153 11.4477153,15 12,15 Z M12,5.6908721 C12.5522847,5.6908721 13,6.13858735 13,6.6908721 L13,12.0714286 C13,12.6237133 12.5522847,13.0714286 12,13.0714286 C11.4477153,13.0714286 11,12.6237133 11,12.0714286 L11,6.6908721 C11,6.13858735 11.4477153,5.6908721 12,5.6908721 Z" id="Shape" fill="#000000"></path>
    </g>
</svg>