<?xml version="1.0" encoding="UTF-8"?>
<svg width="24px" height="24px" viewBox="0 0 24 24" version="1.1" xmlns="http://www.w3.org/2000/svg" xmlns:xlink="http://www.w3.org/1999/xlink">
    <!-- Generator: Sketch 57.1 (83088) - https://sketch.com -->
    <title>svg/eye</title>
    <desc>Created with Sketch.</desc>
    <g id="eye" stroke="none" stroke-width="1" fill="none" fill-rule="evenodd">
        <path d="M12,16 C9.790861,16 8,14.209139 8,12 C8,9.790861 9.790861,8 12,8 C14.209139,8 16,9.790861 16,12 C16,14.209139 14.209139,16 12,16 Z M12,14 C13.1045695,14 14,13.1045695 14,12 C14,10.8954305 13.1045695,10 12,10 C10.8954305,10 10,10.8954305 10,12 C10,13.1045695 10.8954305,14 12,14 Z" id="Oval" fill="#000000" fill-rule="nonzero"></path>
        <path d="M12,18 C16.0214057,18 19.5949462,15.6043306 21.1682755,12 C19.5949462,8.39566938 16.0214057,6 12,6 C7.97859428,6 4.40505377,8.39566938 2.83172447,12 C4.40505377,15.6043306 7.97859428,18 12,18 Z M0.818393095,11.6362268 C2.60199709,7.06908248 7.01413978,4 12,4 C16.9858602,4 21.3980029,7.06908248 23.1816069,11.6362268 C23.2729569,11.8701399 23.2729569,12.1298601 23.1816069,12.3637732 C21.3980029,16.9309175 16.9858602,20 12,20 C7.01413978,20 2.60199709,16.9309175 0.818393095,12.3637732 C0.727043141,12.1298601 0.727043141,11.8701399 0.818393095,11.6362268 Z" id="Combined-Shape" fill="#000000" fill-rule="nonzero"></path>
    </g>
</svg>