<?xml version="1.0" encoding="UTF-8"?>
<svg width="24px" height="24px" viewBox="0 0 24 24" version="1.1" xmlns="http://www.w3.org/2000/svg" xmlns:xlink="http://www.w3.org/1999/xlink">
    <!-- Generator: Sketch 57.1 (83088) - https://sketch.com -->
    <title>svg/fertilizer</title>
    <desc>Created with Sketch.</desc>
    <g id="fertilizer" stroke="none" stroke-width="1" fill="none" fill-rule="evenodd">
        <path d="M18.5,1 C20.1568542,1 21.5,2.34314575 21.5,4 L21.5,5 C21.5,5.55228475 21.0522847,6 20.5,6 L20,6 L20.0007215,18.4017641 C20.8970257,18.9205808 21.5,19.8898743 21.5,21 L21.5,22 C21.5,22.5522847 21.0522847,23 20.5,23 L3.5,23 C2.94771525,23 2.5,22.5522847 2.5,22 L2.5,21 C2.5,19.8894576 3.10342711,18.9198532 4.00028797,18.40118 L4,6 L3.5,6 C2.94771525,6 2.5,5.55228475 2.5,5 L2.5,4 C2.5,2.34314575 3.84314575,1 5.5,1 L18.5,1 Z M18,6 L6,6 L6,18 L9.5,18 C10.0522847,18 10.5,18.4477153 10.5,19 C10.5,19.5522847 10.0522847,20 9.5,20 L5.5,20 C4.94771525,20 4.5,20.4477153 4.5,21 L19.5,21 C19.5,20.4477153 19.0522847,20 18.5,20 L16.5,20 C15.9477153,20 15.5,19.5522847 15.5,19 C15.5,18.4477153 15.9477153,18 16.5,18 L18,18 L18,6 Z M15,12 L15,13 C15,14.6568542 13.6568542,16 12,16 C10.3431458,16 9,14.6568542 9,13 L9,12 C10.6568542,12 12,13.3431458 12,15 C12,13.3431458 13.3431458,12 15,12 Z M15,9 L15,10 C15,10.3519927 14.9393792,10.6898266 14.8280083,11.003631 C13.7026511,11.0512377 12.6975925,11.5638083 12,12.3541756 C11.3024075,11.5638083 10.2973489,11.0512377 9.17199173,11.003631 C9.06062081,10.6898266 9,10.3519927 9,10 L9,9 C10.6568542,9 12,10.3431458 12,12 C12,10.3431458 13.3431458,9 15,9 Z M18.5,3 L5.5,3 C4.94771525,3 4.5,3.44771525 4.5,4 L19.5,4 C19.5,3.44771525 19.0522847,3 18.5,3 Z" id="Shape" fill="#000000" fill-rule="nonzero"></path>
    </g>
</svg>