<?xml version="1.0" encoding="UTF-8"?>
<svg width="24px" height="24px" viewBox="0 0 24 24" version="1.1" xmlns="http://www.w3.org/2000/svg" xmlns:xlink="http://www.w3.org/1999/xlink">
    <!-- Generator: Sketch 57.1 (83088) - https://sketch.com -->
    <title>svg/gear</title>
    <desc>Created with Sketch.</desc>
    <g id="gear" stroke="none" stroke-width="1" fill="none" fill-rule="evenodd">
        <path d="M12.9090909,2 L13.3068507,4.38277493 C13.7796859,4.46331652 14.2378807,4.58681458 14.6772776,4.74911174 L16.2127042,2.88520051 L17.7872958,3.79429142 L16.9401232,6.0578642 C17.3038391,6.36057969 17.6393234,6.69605786 17.9420454,7.05976812 L20.2057086,6.21270418 L21.1147995,7.78729582 L19.250624,9.32200708 C19.4130846,9.76171211 19.5366904,10.2202454 19.6172746,10.6934402 L22,11.0909091 L22,12.9090909 L19.6171049,13.3075557 C19.5365779,13.7800405 19.4131574,14.2379036 19.2509921,14.6769965 L21.1147995,16.2127042 L20.2057086,17.7872958 L17.9421919,16.9400558 C17.6394765,17.30378 17.3039972,17.6392721 16.9402849,17.9420013 L17.7872958,20.2057086 L16.2127042,21.1147995 L14.6780259,19.2506118 C14.2383161,19.4130765 13.7797773,19.5366855 13.3065766,19.6172717 L12.9090909,22 L11.0909091,22 L10.6931065,19.6172178 C10.2203497,19.5366868 9.76222874,19.4132136 9.32289887,19.2509534 L7.78729582,21.1147995 L6.21270418,20.2057086 L7.05970652,17.9419941 C6.6957639,17.6390723 6.3600902,17.3033461 6.05722482,16.9393549 L3.79429142,17.7872958 L2.88520051,16.2127042 L4.7491069,14.6772645 C4.58685037,14.2379751 4.46337392,13.7798971 4.38283188,13.3071849 L2,12.9090909 L2,11.0909091 L4.38276335,10.6932173 C4.46329504,10.2204146 4.58677726,9.76225002 4.7490535,9.32288011 L2.88520051,7.78729582 L3.79429142,6.21270418 L6.05781895,7.05993112 C6.36071207,6.69599508 6.69640727,6.3603242 7.06036582,6.0574572 L6.21270418,3.79429142 L7.78729582,2.88520051 L9.32270454,4.74911835 C9.7621069,4.58681794 10.2203077,4.46331761 10.6931493,4.38277493 L11.0909091,2 L12.9090909,2 Z M16.5717751,15.7441021 L13.3344614,13.8399017 C12.9597365,14.112156 12.4986199,14.2727273 12,14.2727273 C11.5013801,14.2727273 11.0402635,14.112156 10.6655386,13.8399017 L7.42822492,15.7441021 C8.51191142,17.0657904 10.157474,17.9090909 12,17.9090909 C13.842526,17.9090909 15.4880886,17.0657904 16.5717751,15.7441021 L13.3344614,13.8399017 L16.5717751,15.7441021 Z M6.09090909,12 C6.09090909,12.7690907 6.23783903,13.5038642 6.50516012,14.1777815 L9.74334823,12.2717224 C9.73273343,12.1826281 9.72727273,12.0919517 9.72727273,12 C9.72727273,11.0683629 10.2878326,10.2676517 11.0900665,9.91675185 L11.0905436,6.16046388 C8.25882251,6.59789547 6.09090909,9.04577608 6.09090909,12 Z M12.9094564,6.16046388 L12.9099335,9.91675185 C13.7121674,10.2676517 14.2727273,11.0683629 14.2727273,12 C14.2727273,12.0919517 14.2672666,12.1826281 14.2566518,12.2717224 L17.4948399,14.1777815 C17.762161,13.5038642 17.9090909,12.7690907 17.9090909,12 C17.9090909,9.04577608 15.7411775,6.59789547 12.9094564,6.16046388 Z" id="Shape" fill="#000000" fill-rule="nonzero"></path>
    </g>
</svg>