<?xml version="1.0" encoding="UTF-8"?>
<svg width="24px" height="24px" viewBox="0 0 24 24" version="1.1" xmlns="http://www.w3.org/2000/svg" xmlns:xlink="http://www.w3.org/1999/xlink">
    <!-- Generator: Sketch 57.1 (83088) - https://sketch.com -->
    <title>svg/info-circle</title>
    <desc>Created with Sketch.</desc>
    <g id="info-circle" stroke="none" stroke-width="1" fill="none" fill-rule="evenodd">
        <path d="M12,1 C18.0751322,1 23,5.92486775 23,12 C23,18.0751322 18.0751322,23 12,23 C5.92486775,23 1,18.0751322 1,12 C1,5.92486775 5.92486775,1 12,1 Z M12,3 C7.02943725,3 3,7.02943725 3,12 C3,16.9705627 7.02943725,21 12,21 C16.9705627,21 21,16.9705627 21,12 C21,7.02943725 16.9705627,3 12,3 Z M12,9.92857143 C12.5522847,9.92857143 13,10.3762867 13,10.9285714 L13,16.3091279 C13,16.8614126 12.5522847,17.3091279 12,17.3091279 C11.4477153,17.3091279 11,16.8614126 11,16.3091279 L11,10.9285714 C11,10.3762867 11.4477153,9.92857143 12,9.92857143 Z M12,6 C12.5522847,6 13,6.44771525 13,7 C13,7.55228475 12.5522847,8 12,8 C11.4477153,8 11,7.55228475 11,7 C11,6.44771525 11.4477153,6 12,6 Z" id="Shape" fill="#000000"></path>
    </g>
</svg>