<?xml version="1.0" encoding="UTF-8"?>
<svg width="24px" height="24px" viewBox="0 0 24 24" version="1.1" xmlns="http://www.w3.org/2000/svg" xmlns:xlink="http://www.w3.org/1999/xlink">
    <!-- Generator: Sketch 57.1 (83088) - https://sketch.com -->
    <title>svg/legal-entity</title>
    <desc>Created with Sketch.</desc>
    <g id="legal-entity" stroke="none" stroke-width="1" fill="none" fill-rule="evenodd">
        <path d="M17.5,11 C19.4329966,11 21,12.5670034 21,14.5 C21,15.676777 20.4192408,16.7179104 19.5287016,17.3524211 C21.5528787,18.081217 23,19.8722253 23,22 L21,22 C21,20.3710972 19.4575156,19 17.5,19 C15.5424844,19 14,20.3710972 14,22 L12,22 C12,19.8722253 13.4471213,18.081217 15.4709971,17.3513157 C14.5807592,16.7179104 14,15.676777 14,14.5 C14,12.5670034 15.5670034,11 17.5,11 Z M18.5,1.5 L18.5,9 L16.5,9 L16.5,3.5 L4.5,3.5 L4.5,20 L9.5,20 L9.5,22 L2.5,22 L2.5,1.5 L18.5,1.5 Z M9.5,16 L9.5,18 L6.5,18 L6.5,16 L9.5,16 Z M12.5,16 L12.5,18 L11.5,18 L11.5,16 L12.5,16 Z M17.5,13 C16.6715729,13 16,13.6715729 16,14.5 C16,15.3284271 16.6715729,16 17.5,16 C18.3284271,16 19,15.3284271 19,14.5 C19,13.6715729 18.3284271,13 17.5,13 Z M9.5,12.5 L9.5,14.5 L6.5,14.5 L6.5,12.5 L9.5,12.5 Z M12.5,12.5 L12.5,14.5 L11.5,14.5 L11.5,12.5 L12.5,12.5 Z M9.5,9 L9.5,11 L6.5,11 L6.5,9 L9.5,9 Z M14.5,9 L14.5,11 L11.5,11 L11.5,9 L14.5,9 Z M9.5,5.5 L9.5,7.5 L6.5,7.5 L6.5,5.5 L9.5,5.5 Z M14.5,5.5 L14.5,7.5 L11.5,7.5 L11.5,5.5 L14.5,5.5 Z" id="Shape" fill="#000000" fill-rule="nonzero"></path>
    </g>
</svg>