<?xml version="1.0" encoding="UTF-8"?>
<svg width="24px" height="24px" viewBox="0 0 24 24" version="1.1" xmlns="http://www.w3.org/2000/svg" xmlns:xlink="http://www.w3.org/1999/xlink">
    <!-- Generator: Sketch 57.1 (83088) - https://sketch.com -->
    <title>svg/license-plate</title>
    <desc>Created with Sketch.</desc>
    <g id="license-plate" stroke="none" stroke-width="1" fill="none" fill-rule="evenodd">
        <path d="M21,5 C22.1045695,5 23,5.8954305 23,7 L23,17 C23,18.1045695 22.1045695,19 21,19 L3,19 C1.8954305,19 1,18.1045695 1,17 L1,7 C1,5.8954305 1.8954305,5 3,5 L21,5 Z M21,7 L3,7 L3,17 L21,17 L21,7 Z M7,10.5 C7.82842712,10.5 8.5,11.1715729 8.5,12 C8.5,12.8284271 7.82842712,13.5 7,13.5 C6.17157288,13.5 5.5,12.8284271 5.5,12 C5.5,11.1715729 6.17157288,10.5 7,10.5 Z M12,10.5 C12.8284271,10.5 13.5,11.1715729 13.5,12 C13.5,12.8284271 12.8284271,13.5 12,13.5 C11.1715729,13.5 10.5,12.8284271 10.5,12 C10.5,11.1715729 11.1715729,10.5 12,10.5 Z M17,10.5 C17.8284271,10.5 18.5,11.1715729 18.5,12 C18.5,12.8284271 17.8284271,13.5 17,13.5 C16.1715729,13.5 15.5,12.8284271 15.5,12 C15.5,11.1715729 16.1715729,10.5 17,10.5 Z" id="Shape" fill="#000000" fill-rule="nonzero"></path>
        <g id="Group" transform="translate(5.500000, 10.500000)"></g>
    </g>
</svg>