<?xml version="1.0" encoding="UTF-8"?>
<svg width="24px" height="24px" viewBox="0 0 24 24" version="1.1" xmlns="http://www.w3.org/2000/svg" xmlns:xlink="http://www.w3.org/1999/xlink">
    <!-- Generator: Sketch 57.1 (83088) - https://sketch.com -->
    <title>svg/load</title>
    <desc>Created with Sketch.</desc>
    <g id="load" stroke="none" stroke-width="1" fill="none" fill-rule="evenodd">
        <path d="M21,4 C21.5522847,4 22,4.44771525 22,5 C22,5.55228475 21.5522847,6 21,6 L4,6 L4,14 L21,14 C21.5522847,14 22,14.4477153 22,15 C22,15.5522847 21.5522847,16 21,16 L16.2361945,16.0000983 C16.4916869,16.2855821 16.6933151,16.6202822 16.8251041,16.9882237 L16.8292943,17 L21,17 C21.5522847,17 22,17.4477153 22,18 C22,18.5522847 21.5522847,19 21,19 L16.8292943,19 L16.8251041,19.0117763 C16.4099611,20.1708131 15.3018141,21 14,21 C12.6981859,21 11.5900389,20.1708131 11.1748959,19.0117763 L11.1707057,19 L10.8292943,19 L10.8251041,19.0117763 C10.4099611,20.1708131 9.30181405,21 8,21 C6.69818595,21 5.59003888,20.1708131 5.17489588,19.0117763 L5.17070571,19 L3,19 C2.44771525,19 2,18.5522847 2,18 L2,5 C2,4.44771525 2.44771525,4 3,4 L21,4 Z M8,17 C7.44771525,17 7,17.4477153 7,18 C7,18.5522847 7.44771525,19 8,19 C8.55228475,19 9,18.5522847 9,18 C9,17.4477153 8.55228475,17 8,17 Z M14,17 C13.4477153,17 13,17.4477153 13,18 C13,18.5522847 13.4477153,19 14,19 C14.5522847,19 15,18.5522847 15,18 C15,17.4477153 14.5522847,17 14,17 Z M16.8842837,18.8279805 L16.8973517,18.7809189 C16.8774012,18.8551221 16.854676,18.9281885 16.8292943,19 L16.8842837,18.8279805 Z M11.0109332,18.2579308 C11.0036939,18.1729156 11,18.0868892 11,18 L11.0060731,18.1924443 L11.0109332,18.2579308 Z M11,17.999 L10.9972481,17.8703319 L10.994,17.823 L11,17.999 Z M16.9938628,17.8065458 L16.9910238,17.766195 C16.9969712,17.8433491 17,17.9213208 17,18 L16.9938628,17.8065458 Z M11.1026483,17.2190811 C11.1225988,17.1448779 11.145324,17.0718115 11.1707057,17 L11.1157163,17.1720195 L11.1026483,17.2190811 Z M11.7638055,16.0000983 L10.2361945,16.0000983 C10.4916869,16.2855821 10.6933151,16.6202822 10.8251041,16.9882237 L10.8292943,17 L11.1707057,17 L11.1748959,16.9882237 C11.3066849,16.6202822 11.5083131,16.2855821 11.7638055,16.0000983 Z M5.76380548,16.0000983 L4,16 L4,17 L5.17070571,17 L5.17489588,16.9882237 C5.30668491,16.6202822 5.50831308,16.2855821 5.76380548,16.0000983 Z M5,18.027 L5,18 L5.002,17.883 L5.00056383,17.9412472 L5,18 L5,18.027 Z M5,18.027 L5.00042558,18.0510491 L5.00275187,18.1296681 L5.005,18.176 L5,18.027 Z" id="Shape" fill="#000000" fill-rule="nonzero"></path>
    </g>
</svg>