<?xml version="1.0" encoding="UTF-8"?>
<svg width="24px" height="24px" viewBox="0 0 24 24" version="1.1" xmlns="http://www.w3.org/2000/svg" xmlns:xlink="http://www.w3.org/1999/xlink">
    <!-- Generator: Sketch 57.1 (83088) - https://sketch.com -->
    <title>svg/map-pin-alt</title>
    <desc>Created with Sketch.</desc>
    <g id="map-pin-alt" stroke="none" stroke-width="1" fill="none" fill-rule="evenodd">
        <path d="M12,3 C14.209139,3 16,4.790861 16,7 C16,8.86356525 14.7256022,10.429479 13.0007613,10.8737865 L13,21 L11,21 L11.0002435,10.8740452 C9.27489272,10.4300871 8,8.86392711 8,7 C8,4.790861 9.790861,3 12,3 Z M12,5 C10.8954305,5 10,5.8954305 10,7 C10,8.1045695 10.8954305,9 12,9 C13.1045695,9 14,8.1045695 14,7 C14,5.8954305 13.1045695,5 12,5 Z" id="Shape" fill="#000000" fill-rule="nonzero"></path>
    </g>
</svg>