<?xml version="1.0" encoding="UTF-8"?>
<svg width="24px" height="24px" viewBox="0 0 24 24" version="1.1" xmlns="http://www.w3.org/2000/svg" xmlns:xlink="http://www.w3.org/1999/xlink">
    <!-- Generator: Sketch 57.1 (83088) - https://sketch.com -->
    <title>svg/parked-truck</title>
    <desc>Created with Sketch.</desc>
    <g id="parked-truck" stroke="none" stroke-width="1" fill="none" fill-rule="evenodd">
        <path d="M12.2070824,0.0216743675 L12.3417431,0.0602065765 L23.3417431,4.06020658 C23.6974133,4.18954122 23.9460652,4.50669596 23.9922389,4.87538276 L24,5 L24,23 L22,23 L22,5.70042726 L12,2.06406363 L2,5.70042726 L2,23 L0,23 L0,5 C0,4.6215442 0.213084877,4.27947735 0.54379477,4.11008747 L0.658256937,4.06020658 L11.6582569,0.0602065765 C11.8348629,-0.00401377177 12.0250457,-0.0168578414 12.2070824,0.0216743675 Z M19,23 L16,23 L16,21 L8,21 L8,23 L5,23 L5,18.236068 L4,16.236068 L4,8 C4,6.8954305 4.8954305,6 6,6 L18,6 C19.1045695,6 20,6.8954305 20,8 L20,16.236068 L19,18.236068 L19,23 Z M16,16 L8,16 C7.44771525,16 7,16.4477153 7,17 L7,19 L17,19 L17,17 C17,16.4477153 16.5522847,16 16,16 Z M9,16.5 C9.55228475,16.5 10,16.9477153 10,17.5 C10,18.0522847 9.55228475,18.5 9,18.5 C8.44771525,18.5 8,18.0522847 8,17.5 C8,16.9477153 8.44771525,16.5 9,16.5 Z M15,16.5 C15.5522847,16.5 16,16.9477153 16,17.5 C16,18.0522847 15.5522847,18.5 15,18.5 C14.4477153,18.5 14,18.0522847 14,17.5 C14,16.9477153 14.4477153,16.5 15,16.5 Z M18,8 L6,8 L6,14.7638055 C6.28864786,14.5055694 6.62747643,14.3023606 7.00008893,14.1706743 L7,12 C7,10.8954305 7.8954305,10 9,10 L15,10 C16.1045695,10 17,10.8954305 17,12 L17.0009007,14.1710242 C17.3735457,14.3028699 17.7123755,14.5062588 18.0008825,14.7646837 L18,8 Z M15,12 L9,12 L9,14 L15,14 L15,12 Z" id="Shape" fill="#000000" fill-rule="nonzero"></path>
    </g>
</svg>