<?xml version="1.0" encoding="UTF-8"?>
<svg width="24px" height="24px" viewBox="0 0 24 24" version="1.1" xmlns="http://www.w3.org/2000/svg" xmlns:xlink="http://www.w3.org/1999/xlink">
    <!-- Generator: Sketch 57.1 (83088) - https://sketch.com -->
    <title>svg/password</title>
    <desc>Created with Sketch.</desc>
    <g id="password" stroke="none" stroke-width="1" fill="none" fill-rule="evenodd">
        <path d="M12,1 C15.3137085,1 18,3.6862915 18,7 L18,8 L21,8 C21.5522847,8 22,8.44771525 22,9 L22,21 C22,21.5522847 21.5522847,22 21,22 L3,22 C2.44771525,22 2,21.5522847 2,21 L2,9 C2,8.44771525 2.44771525,8 3,8 L6,8 L6,7 C6,3.6862915 8.6862915,1 12,1 Z M20,10 L4,10 L4,20 L20,20 L20,10 Z M7,13.5 C7.82842712,13.5 8.5,14.1715729 8.5,15 C8.5,15.8284271 7.82842712,16.5 7,16.5 C6.17157288,16.5 5.5,15.8284271 5.5,15 C5.5,14.1715729 6.17157288,13.5 7,13.5 Z M12,13.5 C12.8284271,13.5 13.5,14.1715729 13.5,15 C13.5,15.8284271 12.8284271,16.5 12,16.5 C11.1715729,16.5 10.5,15.8284271 10.5,15 C10.5,14.1715729 11.1715729,13.5 12,13.5 Z M17,13.5 C17.8284271,13.5 18.5,14.1715729 18.5,15 C18.5,15.8284271 17.8284271,16.5 17,16.5 C16.1715729,16.5 15.5,15.8284271 15.5,15 C15.5,14.1715729 16.1715729,13.5 17,13.5 Z M12,3 C9.790861,3 8,4.790861 8,7 L8,8 L16,8 L16,7 C16,4.790861 14.209139,3 12,3 Z" id="Shape" fill="#000000" fill-rule="nonzero"></path>
    </g>
</svg>