<?xml version="1.0" encoding="UTF-8"?>
<svg width="24px" height="24px" viewBox="0 0 24 24" version="1.1" xmlns="http://www.w3.org/2000/svg" xmlns:xlink="http://www.w3.org/1999/xlink">
    <!-- Generator: Sketch 57.1 (83088) - https://sketch.com -->
    <title>svg/pile-alt</title>
    <desc>Created with Sketch.</desc>
    <g id="pile-alt" stroke="none" stroke-width="1" fill="none" fill-rule="evenodd">
        <path d="M3,16 C3.82842712,16 4.5,16.6715729 4.5,17.5 C4.5,18.3284271 3.82842712,19 3,19 C2.17157288,19 1.5,18.3284271 1.5,17.5 C1.5,16.6715729 2.17157288,16 3,16 Z M7,16 C7.82842712,16 8.5,16.6715729 8.5,17.5 C8.5,18.3284271 7.82842712,19 7,19 C6.17157288,19 5.5,18.3284271 5.5,17.5 C5.5,16.6715729 6.17157288,16 7,16 Z M11,16 C11.8284271,16 12.5,16.6715729 12.5,17.5 C12.5,18.3284271 11.8284271,19 11,19 C10.1715729,19 9.5,18.3284271 9.5,17.5 C9.5,16.6715729 10.1715729,16 11,16 Z M15,16 C15.8284271,16 16.5,16.6715729 16.5,17.5 C16.5,18.3284271 15.8284271,19 15,19 C14.1715729,19 13.5,18.3284271 13.5,17.5 C13.5,16.6715729 14.1715729,16 15,16 Z M19,16 C19.8284271,16 20.5,16.6715729 20.5,17.5 C20.5,18.3284271 19.8284271,19 19,19 C18.1715729,19 17.5,18.3284271 17.5,17.5 C17.5,16.6715729 18.1715729,16 19,16 Z M23,16 C23.8284271,16 24.5,16.6715729 24.5,17.5 C24.5,18.3284271 23.8284271,19 23,19 C22.1715729,19 21.5,18.3284271 21.5,17.5 C21.5,16.6715729 22.1715729,16 23,16 Z M5,12 C5.82842712,12 6.5,12.6715729 6.5,13.5 C6.5,14.3284271 5.82842712,15 5,15 C4.17157288,15 3.5,14.3284271 3.5,13.5 C3.5,12.6715729 4.17157288,12 5,12 Z M9,12 C9.82842712,12 10.5,12.6715729 10.5,13.5 C10.5,14.3284271 9.82842712,15 9,15 C8.17157288,15 7.5,14.3284271 7.5,13.5 C7.5,12.6715729 8.17157288,12 9,12 Z M13,12 C13.8284271,12 14.5,12.6715729 14.5,13.5 C14.5,14.3284271 13.8284271,15 13,15 C12.1715729,15 11.5,14.3284271 11.5,13.5 C11.5,12.6715729 12.1715729,12 13,12 Z M17,12 C17.8284271,12 18.5,12.6715729 18.5,13.5 C18.5,14.3284271 17.8284271,15 17,15 C16.1715729,15 15.5,14.3284271 15.5,13.5 C15.5,12.6715729 16.1715729,12 17,12 Z M21,12 C21.8284271,12 22.5,12.6715729 22.5,13.5 C22.5,14.3284271 21.8284271,15 21,15 C20.1715729,15 19.5,14.3284271 19.5,13.5 C19.5,12.6715729 20.1715729,12 21,12 Z M7,8 C7.82842712,8 8.5,8.67157288 8.5,9.5 C8.5,10.3284271 7.82842712,11 7,11 C6.17157288,11 5.5,10.3284271 5.5,9.5 C5.5,8.67157288 6.17157288,8 7,8 Z M11,8 C11.8284271,8 12.5,8.67157288 12.5,9.5 C12.5,10.3284271 11.8284271,11 11,11 C10.1715729,11 9.5,10.3284271 9.5,9.5 C9.5,8.67157288 10.1715729,8 11,8 Z M15,8 C15.8284271,8 16.5,8.67157288 16.5,9.5 C16.5,10.3284271 15.8284271,11 15,11 C14.1715729,11 13.5,10.3284271 13.5,9.5 C13.5,8.67157288 14.1715729,8 15,8 Z M19,8 C19.8284271,8 20.5,8.67157288 20.5,9.5 C20.5,10.3284271 19.8284271,11 19,11 C18.1715729,11 17.5,10.3284271 17.5,9.5 C17.5,8.67157288 18.1715729,8 19,8 Z M9,4 C9.82842712,4 10.5,4.67157288 10.5,5.5 C10.5,6.32842712 9.82842712,7 9,7 C8.17157288,7 7.5,6.32842712 7.5,5.5 C7.5,4.67157288 8.17157288,4 9,4 Z M13,4 C13.8284271,4 14.5,4.67157288 14.5,5.5 C14.5,6.32842712 13.8284271,7 13,7 C12.1715729,7 11.5,6.32842712 11.5,5.5 C11.5,4.67157288 12.1715729,4 13,4 Z" id="Shape" fill="#000000"></path>
    </g>
</svg>