<?xml version="1.0" encoding="UTF-8"?>
<svg width="24px" height="24px" viewBox="0 0 24 24" version="1.1" xmlns="http://www.w3.org/2000/svg" xmlns:xlink="http://www.w3.org/1999/xlink">
    <!-- Generator: Sketch 57.1 (83088) - https://sketch.com -->
    <title>svg/pile</title>
    <desc>Created with Sketch.</desc>
    <g id="pile" stroke="none" stroke-width="1" fill="none" fill-rule="evenodd">
        <path d="M4.5,17 C5.05228475,17 5.5,17.4477153 5.5,18 C5.5,18.5522847 5.05228475,19 4.5,19 C3.94771525,19 3.5,18.5522847 3.5,18 C3.5,17.4477153 3.94771525,17 4.5,17 Z M1.5,17 C2.05228475,17 2.5,17.4477153 2.5,18 C2.5,18.5522847 2.05228475,19 1.5,19 C0.94771525,19 0.5,18.5522847 0.5,18 C0.5,17.4477153 0.94771525,17 1.5,17 Z M7.5,17 C8.05228475,17 8.5,17.4477153 8.5,18 C8.5,18.5522847 8.05228475,19 7.5,19 C6.94771525,19 6.5,18.5522847 6.5,18 C6.5,17.4477153 6.94771525,17 7.5,17 Z M10.5,17 C11.0522847,17 11.5,17.4477153 11.5,18 C11.5,18.5522847 11.0522847,19 10.5,19 C9.94771525,19 9.5,18.5522847 9.5,18 C9.5,17.4477153 9.94771525,17 10.5,17 Z M13.5,17 C14.0522847,17 14.5,17.4477153 14.5,18 C14.5,18.5522847 14.0522847,19 13.5,19 C12.9477153,19 12.5,18.5522847 12.5,18 C12.5,17.4477153 12.9477153,17 13.5,17 Z M16.5,17 C17.0522847,17 17.5,17.4477153 17.5,18 C17.5,18.5522847 17.0522847,19 16.5,19 C15.9477153,19 15.5,18.5522847 15.5,18 C15.5,17.4477153 15.9477153,17 16.5,17 Z M19.5,17 C20.0522847,17 20.5,17.4477153 20.5,18 C20.5,18.5522847 20.0522847,19 19.5,19 C18.9477153,19 18.5,18.5522847 18.5,18 C18.5,17.4477153 18.9477153,17 19.5,17 Z M22.5,17 C23.0522847,17 23.5,17.4477153 23.5,18 C23.5,18.5522847 23.0522847,19 22.5,19 C21.9477153,19 21.5,18.5522847 21.5,18 C21.5,17.4477153 21.9477153,17 22.5,17 Z M3,14 C3.55228475,14 4,14.4477153 4,15 C4,15.5522847 3.55228475,16 3,16 C2.44771525,16 2,15.5522847 2,15 C2,14.4477153 2.44771525,14 3,14 Z M6,14 C6.55228475,14 7,14.4477153 7,15 C7,15.5522847 6.55228475,16 6,16 C5.44771525,16 5,15.5522847 5,15 C5,14.4477153 5.44771525,14 6,14 Z M9,14 C9.55228475,14 10,14.4477153 10,15 C10,15.5522847 9.55228475,16 9,16 C8.44771525,16 8,15.5522847 8,15 C8,14.4477153 8.44771525,14 9,14 Z M12,14 C12.5522847,14 13,14.4477153 13,15 C13,15.5522847 12.5522847,16 12,16 C11.4477153,16 11,15.5522847 11,15 C11,14.4477153 11.4477153,14 12,14 Z M15,14 C15.5522847,14 16,14.4477153 16,15 C16,15.5522847 15.5522847,16 15,16 C14.4477153,16 14,15.5522847 14,15 C14,14.4477153 14.4477153,14 15,14 Z M18,14 C18.5522847,14 19,14.4477153 19,15 C19,15.5522847 18.5522847,16 18,16 C17.4477153,16 17,15.5522847 17,15 C17,14.4477153 17.4477153,14 18,14 Z M21,14 C21.5522847,14 22,14.4477153 22,15 C22,15.5522847 21.5522847,16 21,16 C20.4477153,16 20,15.5522847 20,15 C20,14.4477153 20.4477153,14 21,14 Z M4.5,11 C5.05228475,11 5.5,11.4477153 5.5,12 C5.5,12.5522847 5.05228475,13 4.5,13 C3.94771525,13 3.5,12.5522847 3.5,12 C3.5,11.4477153 3.94771525,11 4.5,11 Z M7.5,11 C8.05228475,11 8.5,11.4477153 8.5,12 C8.5,12.5522847 8.05228475,13 7.5,13 C6.94771525,13 6.5,12.5522847 6.5,12 C6.5,11.4477153 6.94771525,11 7.5,11 Z M10.5,11 C11.0522847,11 11.5,11.4477153 11.5,12 C11.5,12.5522847 11.0522847,13 10.5,13 C9.94771525,13 9.5,12.5522847 9.5,12 C9.5,11.4477153 9.94771525,11 10.5,11 Z M13.5,11 C14.0522847,11 14.5,11.4477153 14.5,12 C14.5,12.5522847 14.0522847,13 13.5,13 C12.9477153,13 12.5,12.5522847 12.5,12 C12.5,11.4477153 12.9477153,11 13.5,11 Z M16.5,11 C17.0522847,11 17.5,11.4477153 17.5,12 C17.5,12.5522847 17.0522847,13 16.5,13 C15.9477153,13 15.5,12.5522847 15.5,12 C15.5,11.4477153 15.9477153,11 16.5,11 Z M19.5,11 C20.0522847,11 20.5,11.4477153 20.5,12 C20.5,12.5522847 20.0522847,13 19.5,13 C18.9477153,13 18.5,12.5522847 18.5,12 C18.5,11.4477153 18.9477153,11 19.5,11 Z M6,8 C6.55228475,8 7,8.44771525 7,9 C7,9.55228475 6.55228475,10 6,10 C5.44771525,10 5,9.55228475 5,9 C5,8.44771525 5.44771525,8 6,8 Z M9,8 C9.55228475,8 10,8.44771525 10,9 C10,9.55228475 9.55228475,10 9,10 C8.44771525,10 8,9.55228475 8,9 C8,8.44771525 8.44771525,8 9,8 Z M12,8 C12.5522847,8 13,8.44771525 13,9 C13,9.55228475 12.5522847,10 12,10 C11.4477153,10 11,9.55228475 11,9 C11,8.44771525 11.4477153,8 12,8 Z M15,8 C15.5522847,8 16,8.44771525 16,9 C16,9.55228475 15.5522847,10 15,10 C14.4477153,10 14,9.55228475 14,9 C14,8.44771525 14.4477153,8 15,8 Z M10.5,5 C11.0522847,5 11.5,5.44771525 11.5,6 C11.5,6.55228475 11.0522847,7 10.5,7 C9.94771525,7 9.5,6.55228475 9.5,6 C9.5,5.44771525 9.94771525,5 10.5,5 Z M13.5,5 C14.0522847,5 14.5,5.44771525 14.5,6 C14.5,6.55228475 14.0522847,7 13.5,7 C12.9477153,7 12.5,6.55228475 12.5,6 C12.5,5.44771525 12.9477153,5 13.5,5 Z" id="Shape" fill="#000000"></path>
    </g>
</svg>