<?xml version="1.0" encoding="UTF-8"?>
<svg width="24px" height="24px" viewBox="0 0 24 24" version="1.1" xmlns="http://www.w3.org/2000/svg" xmlns:xlink="http://www.w3.org/1999/xlink">
    <!-- Generator: Sketch 57.1 (83088) - https://sketch.com -->
    <title>svg/question-circle</title>
    <desc>Created with Sketch.</desc>
    <g id="question-circle" stroke="none" stroke-width="1" fill="none" fill-rule="evenodd">
        <path d="M12,1 C18.0751322,1 23,5.92486775 23,12 C23,18.0751322 18.0751322,23 12,23 C5.92486775,23 1,18.0751322 1,12 C1,5.92486775 5.92486775,1 12,1 Z M12,3 C7.02943725,3 3,7.02943725 3,12 C3,16.9705627 7.02943725,21 12,21 C16.9705627,21 21,16.9705627 21,12 C21,7.02943725 16.9705627,3 12,3 Z M12,16 C12.5522847,16 13,16.4477153 13,17 C13,17.5522847 12.5522847,18 12,18 C11.4477153,18 11,17.5522847 11,17 C11,16.4477153 11.4477153,16 12,16 Z M12,6 C14.209139,6 16,7.790861 16,10 C16,11.3677349 15.3071626,12.6188214 14.1834071,13.3519418 C14.1282223,13.3879435 14.071475,13.4211083 14.0095612,13.4544582 C14.0759892,13.4186767 13.5672979,13.6741282 13.466925,13.7405101 C13.1581451,13.9447225 13,14.247854 13,15 L11,15 C11,13.5856117 11.4870128,12.6521084 12.3636694,12.0723293 C12.5684922,11.9368692 13.1567248,11.6396155 13.0821323,11.6821109 L13.0906243,11.6768818 C13.6542084,11.3092085 14,10.6847976 14,10 C14,8.8954305 13.1045695,8 12,8 C10.8954305,8 10,8.8954305 10,10 L8,10 C8,7.790861 9.790861,6 12,6 Z" id="Shape" fill="#000000" fill-rule="nonzero"></path>
    </g>
</svg>