<?xml version="1.0" encoding="UTF-8"?>
<svg width="24px" height="24px" viewBox="0 0 24 24" version="1.1" xmlns="http://www.w3.org/2000/svg" xmlns:xlink="http://www.w3.org/1999/xlink">
    <!-- Generator: Sketch 57.1 (83088) - https://sketch.com -->
    <title>svg/question</title>
    <desc>Created with Sketch.</desc>
    <g id="question" stroke="none" stroke-width="1" fill="none" fill-rule="evenodd">
        <g id="Group" transform="translate(6.000000, 3.500000)" fill="#000000">
            <path d="M6,15 C6.55228475,15 7,15.4477153 7,16 C7,16.5522847 6.55228475,17 6,17 C5.44771525,17 5,16.5522847 5,16 C5,15.4477153 5.44771525,15 6,15 Z M6,0 C9.03756612,0 11.5,2.46243388 11.5,5.5 C11.5,7.38086807 10.5475053,9.10082887 9.00191492,10.1091477 C8.93200843,10.1547536 8.85861329,10.197648 8.77722768,10.2414863 C8.67104743,10.2986802 8.28164172,10.4899416 8.31722789,10.4720712 C8.15555522,10.553259 8.03507492,10.6206396 7.92457358,10.6937199 C7.31943455,11.0939302 7,11.7062204 7,13 L5,13 C5,11.0439782 5.64830232,9.80131607 6.82131795,9.02553917 C7.10429945,8.83838863 7.97080607,8.40118344 7.85282088,8.46752188 L7.854,8.466 L7.88461063,8.44928316 L7.9091322,8.4340877 C8.8945511,7.79121595 9.5,6.6979307 9.5,5.5 C9.5,3.56700338 7.93299662,2 6,2 C4.06700338,2 2.5,3.56700338 2.5,5.5 L0.5,5.5 C0.5,2.46243388 2.96243388,0 6,0 Z" id="Shape"></path>
        </g>
    </g>
</svg>