<?xml version="1.0" encoding="UTF-8"?>
<svg width="24px" height="24px" viewBox="0 0 24 24" version="1.1" xmlns="http://www.w3.org/2000/svg" xmlns:xlink="http://www.w3.org/1999/xlink">
    <!-- Generator: Sketch 57.1 (83088) - https://sketch.com -->
    <title>svg/rice-alt</title>
    <desc>Created with Sketch.</desc>
    <g id="rice-alt" stroke="none" stroke-width="1" fill="none" fill-rule="evenodd">
        <path d="M12,3 C12.5522847,3 13,3.44771525 13,4 L12.9996803,17.9521831 C13.3203514,17.6653462 13.6745249,17.4107323 14.0584326,17.1947842 L19.5097388,14.1284245 C20.1763428,13.7534597 21,14.2351735 21,15 L21,15.5757626 C21,17.7434025 19.8308293,19.742506 17.9415674,20.8052158 L12.4902612,23.8715755 C11.8236572,24.2465403 11,23.7648265 11,23 L11,22.4242374 L11.002783,22.2338393 L11.0006999,22.1964297 L11,4 C11,3.44771525 11.4477153,3 12,3 Z M18.8010738,16.8217435 L15.038955,18.9379353 C14.154008,19.435718 13.5060505,20.2416775 13.1989262,21.1782565 L16.961045,19.0620647 C17.845992,18.564282 18.4939495,17.7583225 18.8010738,16.8217435 Z M9,15 C9.55228475,15 10,15.4477153 10,16 C10,16.5522847 9.55228475,17 9,17 C8.44771525,17 8,16.5522847 8,16 C8,15.4477153 8.44771525,15 9,15 Z M9,12 C9.55228475,12 10,12.4477153 10,13 C10,13.5522847 9.55228475,14 9,14 C8.44771525,14 8,13.5522847 8,13 C8,12.4477153 8.44771525,12 9,12 Z M15,12 C15.5522847,12 16,12.4477153 16,13 C16,13.5522847 15.5522847,14 15,14 C14.4477153,14 14,13.5522847 14,13 C14,12.4477153 14.4477153,12 15,12 Z M9,9 C9.55228475,9 10,9.44771525 10,10 C10,10.5522847 9.55228475,11 9,11 C8.44771525,11 8,10.5522847 8,10 C8,9.44771525 8.44771525,9 9,9 Z M15,9 C15.5522847,9 16,9.44771525 16,10 C16,10.5522847 15.5522847,11 15,11 C14.4477153,11 14,10.5522847 14,10 C14,9.44771525 14.4477153,9 15,9 Z M9,6 C9.55228475,6 10,6.44771525 10,7 C10,7.55228475 9.55228475,8 9,8 C8.44771525,8 8,7.55228475 8,7 C8,6.44771525 8.44771525,6 9,6 Z M15,6 C15.5522847,6 16,6.44771525 16,7 C16,7.55228475 15.5522847,8 15,8 C14.4477153,8 14,7.55228475 14,7 C14,6.44771525 14.4477153,6 15,6 Z M9,3 C9.55228475,3 10,3.44771525 10,4 C10,4.55228475 9.55228475,5 9,5 C8.44771525,5 8,4.55228475 8,4 C8,3.44771525 8.44771525,3 9,3 Z M15,3 C15.5522847,3 16,3.44771525 16,4 C16,4.55228475 15.5522847,5 15,5 C14.4477153,5 14,4.55228475 14,4 C14,3.44771525 14.4477153,3 15,3 Z M12,0 C12.5522847,0 13,0.44771525 13,1 C13,1.55228475 12.5522847,2 12,2 C11.4477153,2 11,1.55228475 11,1 C11,0.44771525 11.4477153,0 12,0 Z" id="Shape" fill="#000000" fill-rule="nonzero"></path>
    </g>
</svg>