<?xml version="1.0" encoding="UTF-8"?>
<svg width="24px" height="24px" viewBox="0 0 24 24" version="1.1" xmlns="http://www.w3.org/2000/svg" xmlns:xlink="http://www.w3.org/1999/xlink">
    <!-- Generator: Sketch 57.1 (83088) - https://sketch.com -->
    <title>svg/rig</title>
    <desc>Created with Sketch.</desc>
    <g id="rig" stroke="none" stroke-width="1" fill="none" fill-rule="evenodd">
        <path d="M5,20 C3.34314575,20 2,18.6568542 2,17 C2,15.3431458 3.34314575,14 5,14 C6.30625206,14 7.41751442,14.8348501 7.82932572,16.0000889 L10.999,16 L11,5 C11,4.44771525 11.4477153,4 12,4 L15.9296325,4 C16.932692,4 17.869386,4.50130341 18.4257834,5.33589941 L21.4961509,9.94145069 C21.8246859,10.4342532 22,11.0132763 22,11.6055513 L22,17 C22,17.5522847 21.5522847,18 21,18 L18.8292943,18 L18.8251041,18.0117763 C18.4099611,19.1708131 17.3018141,20 16,20 C14.6981859,20 13.5900389,19.1708131 13.1748959,18.0117763 L13.1707057,18 L7.82897577,18.0009007 C7.41688515,19.1656226 6.30588222,20 5,20 Z M16,16 C15.4477153,16 15,16.4477153 15,17 C15,17.5522847 15.4477153,18 16,18 C16.5522847,18 17,17.5522847 17,17 C17,16.4477153 16.5522847,16 16,16 Z M5,16 C4.44771525,16 4,16.4477153 4,17 C4,17.5522847 4.44771525,18 5,18 C5.55228475,18 6,17.5522847 6,17 C6,16.4477153 5.55228475,16 5,16 Z M19,17 L18.9972481,16.8703319 L18.994,16.823 L19,17 Z M15.9296325,6 L13,6 L13,16 L13.1707057,16 L13.1748959,15.9882237 C13.5900389,14.8291869 14.6981859,14 16,14 C17.3018141,14 18.4099611,14.8291869 18.8251041,15.9882237 L18.8292943,16 L20,16 L20,11.6055513 C20,11.4081263 19.941562,11.2151186 19.8320503,11.0508511 L16.7616828,6.4452998 C16.576217,6.16710114 16.2639857,6 15.9296325,6 Z M13.02,17.349 L13.009,17.229 L13.017768,17.3283968 L13.02,17.349 Z" id="Shape" fill="#000000" fill-rule="nonzero"></path>
    </g>
</svg>