<?xml version="1.0" encoding="UTF-8"?>
<svg width="24px" height="24px" viewBox="0 0 24 24" version="1.1" xmlns="http://www.w3.org/2000/svg" xmlns:xlink="http://www.w3.org/1999/xlink">
    <!-- Generator: Sketch 57.1 (83088) - https://sketch.com -->
    <title>svg/sack-alt</title>
    <desc>Created with Sketch.</desc>
    <g id="sack-alt" stroke="none" stroke-width="1" fill="none" fill-rule="evenodd">
        <path d="M17,6.5 C18.6568542,6.5 20,7.84314575 20,9.5 L20,11.5 C20,12.0522847 19.5522847,12.5 19,12.5 L18.5,12.5 L18.5007215,18.9017641 C19.3970257,19.4205808 20,20.3898743 20,21.5 L20,22.5 C20,23.0522847 19.5522847,23.5 19,23.5 L4,23.5 C3.44771525,23.5 3,23.0522847 3,22.5 L3,21.5 C3,20.3894576 3.60342711,19.4198532 4.50028797,18.90118 L4.5,12.5 L4,12.5 C3.44771525,12.5 3,12.0522847 3,11.5 L3,9.5 C3,7.84314575 4.34314575,6.5 6,6.5 L17,6.5 Z M16.5,12.5 L6.5,12.5 L6.5,18.5 L10,18.5 C10.5522847,18.5 11,18.9477153 11,19.5 C11,20.0522847 10.5522847,20.5 10,20.5 L6,20.5 C5.44771525,20.5 5,20.9477153 5,21.5 L18,21.5 C18,20.9477153 17.5522847,20.5 17,20.5 L15,20.5 C14.4477153,20.5 14,20.0522847 14,19.5 C14,18.9477153 14.4477153,18.5 15,18.5 L16.5,18.5 L16.5,12.5 Z M17,8.5 L6,8.5 C5.44771525,8.5 5,8.94771525 5,9.5 L5,10.5 L18,10.5 L18,9.5 C18,8.94771525 17.5522847,8.5 17,8.5 Z M7,3.5 C7.55228475,3.5 8,3.94771525 8,4.5 C8,5.05228475 7.55228475,5.5 7,5.5 C6.44771525,5.5 6,5.05228475 6,4.5 C6,3.94771525 6.44771525,3.5 7,3.5 Z M10,3.5 C10.5522847,3.5 11,3.94771525 11,4.5 C11,5.05228475 10.5522847,5.5 10,5.5 C9.44771525,5.5 9,5.05228475 9,4.5 C9,3.94771525 9.44771525,3.5 10,3.5 Z M13,3.5 C13.5522847,3.5 14,3.94771525 14,4.5 C14,5.05228475 13.5522847,5.5 13,5.5 C12.4477153,5.5 12,5.05228475 12,4.5 C12,3.94771525 12.4477153,3.5 13,3.5 Z M16,3.5 C16.5522847,3.5 17,3.94771525 17,4.5 C17,5.05228475 16.5522847,5.5 16,5.5 C15.4477153,5.5 15,5.05228475 15,4.5 C15,3.94771525 15.4477153,3.5 16,3.5 Z M11.5,0.5 C12.0522847,0.5 12.5,0.94771525 12.5,1.5 C12.5,2.05228475 12.0522847,2.5 11.5,2.5 C10.9477153,2.5 10.5,2.05228475 10.5,1.5 C10.5,0.94771525 10.9477153,0.5 11.5,0.5 Z M8.5,0.5 C9.05228475,0.5 9.5,0.94771525 9.5,1.5 C9.5,2.05228475 9.05228475,2.5 8.5,2.5 C7.94771525,2.5 7.5,2.05228475 7.5,1.5 C7.5,0.94771525 7.94771525,0.5 8.5,0.5 Z M14.5,0.5 C15.0522847,0.5 15.5,0.94771525 15.5,1.5 C15.5,2.05228475 15.0522847,2.5 14.5,2.5 C13.9477153,2.5 13.5,2.05228475 13.5,1.5 C13.5,0.94771525 13.9477153,0.5 14.5,0.5 Z" id="Shape" fill="#000000" fill-rule="nonzero"></path>
    </g>
</svg>