<?xml version="1.0" encoding="UTF-8"?>
<svg width="24px" height="24px" viewBox="0 0 24 24" version="1.1" xmlns="http://www.w3.org/2000/svg" xmlns:xlink="http://www.w3.org/1999/xlink">
    <!-- Generator: Sketch 57.1 (83088) - https://sketch.com -->
    <title>svg/sack</title>
    <desc>Created with Sketch.</desc>
    <g id="sack" stroke="none" stroke-width="1" fill="none" fill-rule="evenodd">
        <path d="M17,2 C18.1045695,2 19,2.8954305 19,4 L19,5 C19,5.35100043 18.9397205,5.68792183 18.8289489,6.00097673 L20.5,6 C21.0522847,6 21.5,6.44771525 21.5,7 C21.5,7.55228475 21.0522847,8 20.5,8 L19.0005627,8.00026168 C19.6281328,8.83587738 20,9.87451157 20,11 L20,17 C20,19.7614237 17.7614237,22 15,22 L8,22 C5.23857625,22 3,19.7614237 3,17 L3,11 C3,9.42634729 3.72698185,8.02249029 4.86342185,7.1059527 C4.329502,6.56431721 4,5.82063826 4,5 L4,4 C4,2.8954305 4.8954305,2 6,2 L17,2 Z M11.5,8 C10.9477153,8 10.5,7.55228475 10.5,7 C10.5,6.44771525 10.9477153,6 11.5,6 L16,6 C16.5522847,6 17,5.55228475 17,5 L17,4 L6,4 L6,5 C6,5.55228475 6.44771525,6 7,6 L8.5,6 C9.05228475,6 9.5,6.44771525 9.5,7 C9.5,7.55228475 9.05228475,8 8.5,8 L8,8 C6.34314575,8 5,9.34314575 5,11 L5,17 C5,18.6568542 6.34314575,20 8,20 L15,20 C16.6568542,20 18,18.6568542 18,17 L18,11 C18,9.34314575 16.6568542,8 15,8 L11.5,8 Z" id="Shape" fill="#000000" fill-rule="nonzero"></path>
    </g>
</svg>