<?xml version="1.0" encoding="UTF-8"?>
<svg width="24px" height="24px" viewBox="0 0 24 24" version="1.1" xmlns="http://www.w3.org/2000/svg" xmlns:xlink="http://www.w3.org/1999/xlink">
    <!-- Generator: Sketch 57.1 (83088) - https://sketch.com -->
    <title>svg/sorghum</title>
    <desc>Created with Sketch.</desc>
    <g id="sorghum" stroke="none" stroke-width="1" fill="none" fill-rule="evenodd">
        <path d="M12,9 C12.5522847,9 13,9.44771525 13,10 L12.9998737,12.813 L13.6819805,12.131728 C14.0725048,11.7412037 14.7056698,11.7412037 15.0961941,12.131728 C15.4867184,12.5222523 15.4867184,13.1554173 15.0961941,13.5459415 L12.9988737,15.643 L12.9998057,18.9997798 C13.8354995,18.3720025 14.8743068,18 16,18 L19,18 L19,19 C19,21.7614237 16.7614237,24 14,24 L11,24 L11,23 C11,22.8833915 11.0039918,22.7677154 11.0118461,22.6531008 C11.0040251,22.6037915 11,22.5523658 11,22.5 L10.9998737,22 L10,22 C7.23857625,22 5,19.7614237 5,17 L5,16 L8,16 C9.12592164,16 10.1649222,16.3721535 11.0007031,17.0001621 L10.9998296,15.8482076 C10.9109783,15.8021216 10.8275929,15.7418064 10.7530483,15.6672619 L8.63172798,13.5459415 C8.24120369,13.1554173 8.24120369,12.5222523 8.63172798,12.131728 C9.02225228,11.7412037 9.65541725,11.7412037 10.0459415,12.131728 L10.9998737,13.085 L11,10 C11,9.44771525 11.4477153,9 12,9 Z M16.8292943,20 L16,20 C14.6937812,20 13.5825421,20.8348076 13.1707057,22 L14,22 C15.3062188,22 16.4174579,21.1651924 16.8292943,20 Z M8,18 L7.17070571,18 C7.58254212,19.1651924 8.69378117,20 10,20 L10.8292943,20 C10.4174579,18.8348076 9.30621883,18 8,18 Z M18.2781746,11.0710678 C18.6686989,11.4615921 18.6686989,12.0947571 18.2781746,12.4852814 C17.8876503,12.8758057 17.2544853,12.8758057 16.863961,12.4852814 C16.4734367,12.0947571 16.4734367,11.4615921 16.863961,11.0710678 C17.2544853,10.6805435 17.8876503,10.6805435 18.2781746,11.0710678 Z M6.86396103,11.0710678 C7.25448532,11.4615921 7.25448532,12.0947571 6.86396103,12.4852814 C6.47343674,12.8758057 5.84027176,12.8758057 5.44974747,12.4852814 C5.05922318,12.0947571 5.05922318,11.4615921 5.44974747,11.0710678 C5.84027176,10.6805435 6.47343674,10.6805435 6.86396103,11.0710678 Z M16.1568542,8.94974747 C16.5473785,9.34027176 16.5473785,9.97343674 16.1568542,10.363961 C15.76633,10.7544853 15.133165,10.7544853 14.7426407,10.363961 C14.3521164,9.97343674 14.3521164,9.34027176 14.7426407,8.94974747 C15.133165,8.55922318 15.76633,8.55922318 16.1568542,8.94974747 Z M20.3994949,8.94974747 C20.7900192,9.34027176 20.7900192,9.97343674 20.3994949,10.363961 C20.0089706,10.7544853 19.3758057,10.7544853 18.9852814,10.363961 C18.5947571,9.97343674 18.5947571,9.34027176 18.9852814,8.94974747 C19.3758057,8.55922318 20.0089706,8.55922318 20.3994949,8.94974747 Z M4.74264069,8.94974747 C5.13316498,9.34027176 5.13316498,9.97343674 4.74264069,10.363961 C4.3521164,10.7544853 3.71895142,10.7544853 3.32842712,10.363961 C2.93790283,9.97343674 2.93790283,9.34027176 3.32842712,8.94974747 C3.71895142,8.55922318 4.3521164,8.55922318 4.74264069,8.94974747 Z M8.98528137,8.94974747 C9.37580567,9.34027176 9.37580567,9.97343674 8.98528137,10.363961 C8.59475708,10.7544853 7.9615921,10.7544853 7.57106781,10.363961 C7.18054352,9.97343674 7.18054352,9.34027176 7.57106781,8.94974747 C7.9615921,8.55922318 8.59475708,8.55922318 8.98528137,8.94974747 Z M18.2781746,6.82842712 C18.6686989,7.21895142 18.6686989,7.8521164 18.2781746,8.24264069 C17.8876503,8.63316498 17.2544853,8.63316498 16.863961,8.24264069 C16.4734367,7.8521164 16.4734367,7.21895142 16.863961,6.82842712 C17.2544853,6.43790283 17.8876503,6.43790283 18.2781746,6.82842712 Z M6.86396103,6.82842712 C7.25448532,7.21895142 7.25448532,7.8521164 6.86396103,8.24264069 C6.47343674,8.63316498 5.84027176,8.63316498 5.44974747,8.24264069 C5.05922318,7.8521164 5.05922318,7.21895142 5.44974747,6.82842712 C5.84027176,6.43790283 6.47343674,6.43790283 6.86396103,6.82842712 Z M10.5,6 C11.0522847,6 11.5,6.44771525 11.5,7 C11.5,7.55228475 11.0522847,8 10.5,8 C9.94771525,8 9.5,7.55228475 9.5,7 C9.5,6.44771525 9.94771525,6 10.5,6 Z M13.5,6 C14.0522847,6 14.5,6.44771525 14.5,7 C14.5,7.55228475 14.0522847,8 13.5,8 C12.9477153,8 12.5,7.55228475 12.5,7 C12.5,6.44771525 12.9477153,6 13.5,6 Z M21.4601551,5.76776695 C21.8506794,6.15829124 21.8506794,6.79145622 21.4601551,7.18198052 C21.0696308,7.57250481 20.4364658,7.57250481 20.0459415,7.18198052 C19.6554173,6.79145622 19.6554173,6.15829124 20.0459415,5.76776695 C20.4364658,5.37724266 21.0696308,5.37724266 21.4601551,5.76776695 Z M3.68198052,5.76776695 C4.07250481,6.15829124 4.07250481,6.79145622 3.68198052,7.18198052 C3.29145622,7.57250481 2.65829124,7.57250481 2.26776695,7.18198052 C1.87724266,6.79145622 1.87724266,6.15829124 2.26776695,5.76776695 C2.65829124,5.37724266 3.29145622,5.37724266 3.68198052,5.76776695 Z M10.5,3 C11.0522847,3 11.5,3.44771525 11.5,4 C11.5,4.55228475 11.0522847,5 10.5,5 C9.94771525,5 9.5,4.55228475 9.5,4 C9.5,3.44771525 9.94771525,3 10.5,3 Z M13.5,3 C14.0522847,3 14.5,3.44771525 14.5,4 C14.5,4.55228475 14.0522847,5 13.5,5 C12.9477153,5 12.5,4.55228475 12.5,4 C12.5,3.44771525 12.9477153,3 13.5,3 Z M12,0 C12.5522847,0 13,0.44771525 13,1 C13,1.55228475 12.5522847,2 12,2 C11.4477153,2 11,1.55228475 11,1 C11,0.44771525 11.4477153,0 12,0 Z" id="Shape" fill="#000000" fill-rule="nonzero"></path>
    </g>
</svg>