<?xml version="1.0" encoding="UTF-8"?>
<svg width="24px" height="24px" viewBox="0 0 24 24" version="1.1" xmlns="http://www.w3.org/2000/svg" xmlns:xlink="http://www.w3.org/1999/xlink">
    <!-- Generator: Sketch 57.1 (83088) - https://sketch.com -->
    <title>svg/sort</title>
    <desc>Created with Sketch.</desc>
    <g id="sort" stroke="none" stroke-width="1" fill="none" fill-rule="evenodd">
        <path d="M7.95710678,14.0428932 L12,18.0857864 L16.0428932,14.0428932 C16.4334175,13.6523689 17.0665825,13.6523689 17.4571068,14.0428932 C17.8476311,14.4334175 17.8476311,15.0665825 17.4571068,15.4571068 L12.7071068,20.2071068 C12.3165825,20.5976311 11.6834175,20.5976311 11.2928932,20.2071068 L6.54289322,15.4571068 C6.15236893,15.0665825 6.15236893,14.4334175 6.54289322,14.0428932 C6.93341751,13.6523689 7.56658249,13.6523689 7.95710678,14.0428932 Z M12.7071068,3.79289322 L17.4571068,8.54289322 C17.8476311,8.93341751 17.8476311,9.56658249 17.4571068,9.95710678 C17.0665825,10.3476311 16.4334175,10.3476311 16.0428932,9.95710678 L12,5.91421356 L7.95710678,9.95710678 C7.56658249,10.3476311 6.93341751,10.3476311 6.54289322,9.95710678 C6.15236893,9.56658249 6.15236893,8.93341751 6.54289322,8.54289322 L11.2928932,3.79289322 C11.6834175,3.40236893 12.3165825,3.40236893 12.7071068,3.79289322 Z" id="Shape" fill="#000000" fill-rule="nonzero"></path>
    </g>
</svg>