<?xml version="1.0" encoding="UTF-8"?>
<svg width="24px" height="24px" viewBox="0 0 24 24" version="1.1" xmlns="http://www.w3.org/2000/svg" xmlns:xlink="http://www.w3.org/1999/xlink">
    <!-- Generator: Sketch 57.1 (83088) - https://sketch.com -->
    <title>svg/trash</title>
    <desc>Created with Sketch.</desc>
    <g id="trash" stroke="none" stroke-width="1" fill="none" fill-rule="evenodd">
        <path d="M12,1 C14.209139,1 16,2.790861 16,5 L20,5 C20.5522847,5 21,5.44771525 21,6 C21,6.51283584 20.6139598,6.93550716 20.1166211,6.99327227 L20,7 L19.939,7 L18.9980526,22.0623783 C18.9651129,22.5894132 18.5280633,23 18,23 L6,23 C5.47193672,23 5.0348871,22.5894132 5.00194742,22.0623783 L4.06,7 L4,7 C3.48716416,7 3.06449284,6.61395981 3.00672773,6.11662113 L3,6 C3,5.48716416 3.38604019,5.06449284 3.88337887,5.00672773 L4,5 L8,5.00100455 L8,5 C8,2.790861 9.790861,1 12,1 Z M17.9355488,7 L6.06445122,7 L6.93945122,21 L17.0605488,21 L17.9355488,7 Z M11,8.5 L11,19.8535665 L9,19.8535665 L9,8.5 L11,8.5 Z M15,8.5 L15,19.8535665 L13,19.8535665 L13,8.5 L15,8.5 Z M12,3 C10.8954305,3 10,3.8954305 10,5 L14,5.00100749 C14,5.00067168 14,5.00033585 14,5 C14,3.8954305 13.1045695,3 12,3 Z" id="Shape" fill="#000000" fill-rule="nonzero"></path>
    </g>
</svg>