<?xml version="1.0" encoding="UTF-8"?>
<svg width="48px" height="24px" viewBox="0 0 48 24" version="1.1" xmlns="http://www.w3.org/2000/svg" xmlns:xlink="http://www.w3.org/1999/xlink">
    <!-- Generator: Sketch 57.1 (83088) - https://sketch.com -->
    <title>svg/truck-type-container</title>
    <desc>Created with Sketch.</desc>
    <g id="truck-type-container" stroke="none" stroke-width="1" fill="none" fill-rule="evenodd">
        <path d="M39.9296325,5 C40.932692,5 41.869386,5.50130341 42.4257834,6.33589941 L45.4961509,10.9414507 C45.8246859,11.4342532 46,12.0132763 46,12.6055513 L46,18 C46,18.5522847 45.5522847,19 45,19 L42.8292943,19 L42.8251041,19.0117763 C42.4099611,20.1708131 41.3018141,21 40,21 C38.6981859,21 37.5900389,20.1708131 37.1748959,19.0117763 L37.1707057,19 L36,19 C35.4477153,19 35,18.5522847 35,18 L35,6 C35,5.44771525 35.4477153,5 36,5 L39.9296325,5 Z M8,21 C6.69818595,21 5.59003888,20.1708131 5.17489588,19.0117763 L5.17070571,19 L3,19 C2.44771525,19 2,18.5522847 2,18 C2,17.4477153 2.44771525,17 3,17 L5.17070571,17 L5.17489588,16.9882237 C5.30668491,16.6202822 5.50831308,16.2855821 5.76380548,16.0000983 L3,16 C2.44771525,16 2,15.5522847 2,15 L2,6 C2,5.44771525 2.44771525,5 3,5 L33,5 C33.5522847,5 34,5.44771525 34,6 L34,15 C34,15.5522847 33.5522847,16 33,16 L16.2361945,16.0000983 C16.4916869,16.2855821 16.6933151,16.6202822 16.8251041,16.9882237 L16.8292943,17 L33,17 C33.5522847,17 34,17.4477153 34,18 C34,18.5522847 33.5522847,19 33,19 L16.8292943,19 L16.8251041,19.0117763 C16.4099611,20.1708131 15.3018141,21 14,21 C12.3431458,21 11,19.6568542 11,18 C11,19.6568542 9.65685425,21 8,21 Z M40,17 C39.4477153,17 39,17.4477153 39,18 C39,18.5522847 39.4477153,19 40,19 C40.5522847,19 41,18.5522847 41,18 C41,17.4477153 40.5522847,17 40,17 Z M8,17 C7.44771525,17 7,17.4477153 7,18 C7,18.5522847 7.44771525,19 8,19 C8.55228475,19 9,18.5522847 9,18 C9,17.4477153 8.55228475,17 8,17 Z M14,17 C13.4477153,17 13,17.4477153 13,18 C13,18.5522847 13.4477153,19 14,19 C14.5522847,19 15,18.5522847 15,18 C15,17.4477153 14.5522847,17 14,17 Z M16.8842837,18.8279805 L16.8973517,18.7809189 C16.8774012,18.8551221 16.854676,18.9281885 16.8292943,19 L16.8842837,18.8279805 Z M37,18.027 L37.0003893,18.0488268 L37.0027519,18.1296681 L37.005,18.176 L37,18.027 Z M37.0022316,17.8832099 L37.0005596,17.9414688 L37,18 L36.999,18 L37,18.027 L37,18 L37.0022316,17.8832099 Z M42.994,17.823 L43,18 L42.9972481,17.8703319 L42.994,17.823 Z M16.9890668,17.7420692 C16.9963061,17.8270844 17,17.9131108 17,18 L16.9939269,17.8075557 L16.9890668,17.7420692 Z M39.9296325,7 L37,7 L37,17 L37.1707057,17 L37.1748959,16.9882237 C37.5900389,15.8291869 38.6981859,15 40,15 C41.3018141,15 42.4099611,15.8291869 42.8251041,16.9882237 L42.8292943,17 L44,17 L44,12.6055513 C44,12.4081263 43.941562,12.2151186 43.8320503,12.0508511 L40.7616828,7.4452998 C40.576217,7.16710114 40.2639857,7 39.9296325,7 Z M5.75,7 L4,7 L4,14 L5.75,14 L5.75,7 Z M32,7 L30.25,7 L30.25,14 L32,14 L32,7 Z M28.25,7 L26.5,7 L26.5,14 L28.25,14 L28.25,7 Z M24.5,7 L22.75,7 L22.75,14 L24.5,14 L24.5,7 Z M20.75,7 L19,7 L19,14 L20.75,14 L20.75,7 Z M17,7 L15.25,7 L15.25,14 L17,14 L17,7 Z M13.25,7 L11.5,7 L11.5,14 L13.25,14 L13.25,7 Z M9.5,7 L7.75,7 L7.75,14 L9.5,14 L9.5,7 Z M5.001,18.048 L5.00275187,18.1296681 L5.005,18.176 L5.001,18.048 Z M10.9999998,17.9989935 C11,17.231693 11.2888179,16.5308431 11.7638055,16.0000983 L10.2361945,16.0000983 C10.7109747,16.5306113 10.9997477,17.231081 10.9999998,17.9989935 L10.9999998,17.9989935 Z" id="Shape" fill="#000000" fill-rule="nonzero"></path>
    </g>
</svg>