<?xml version="1.0" encoding="UTF-8"?>
<svg width="48px" height="24px" viewBox="0 0 48 24" version="1.1" xmlns="http://www.w3.org/2000/svg" xmlns:xlink="http://www.w3.org/1999/xlink">
    <!-- Generator: Sketch 57.1 (83088) - https://sketch.com -->
    <title>svg/truck-type-hopper</title>
    <desc>Created with Sketch.</desc>
    <g id="truck-type-hopper" stroke="none" stroke-width="1" fill="none" fill-rule="evenodd">
        <path d="M39.9296325,5 C40.932692,5 41.869386,5.50130341 42.4257834,6.33589941 L45.4961509,10.9414507 C45.8246859,11.4342532 46,12.0132763 46,12.6055513 L46,18 C46,18.5522847 45.5522847,19 45,19 L42.8292943,19 L42.8251041,19.0117763 C42.4099611,20.1708131 41.3018141,21 40,21 C38.6981859,21 37.5900389,20.1708131 37.1748959,19.0117763 L37.1707057,19 L36,19 C35.4477153,19 35,18.5522847 35,18 L35,6 C35,5.44771525 35.4477153,5 36,5 L39.9296325,5 Z M33,4 C33.5522847,4 34,4.44771525 34,5 L34,8 C34,8.53589167 33.5775618,8.97652558 33.0421463,8.99911145 L31.3959561,9.06855402 L29.465,13.999 L33,14 C33.5522847,14 34,14.4477153 34,15 L34,18 C34,18.5522847 33.5522847,19 33,19 L16.8292943,19 L16.8251041,19.0117763 C16.4099611,20.1708131 15.3018141,21 14,21 C12.6981859,21 11.5900389,20.1708131 11.1748959,19.0117763 L11.1707057,19 L10.8292943,19 L10.8251041,19.0117763 C10.4099611,20.1708131 9.30181405,21 8,21 C6.69818595,21 5.59003888,20.1708131 5.17489588,19.0117763 L5.17070571,19 L3,19 C2.44771525,19 2,18.5522847 2,18 L2,5 C2,4.44771525 2.44771525,4 3,4 L33,4 Z M14,17 C13.4477153,17 13,17.4477153 13,18 C13,18.5522847 13.4477153,19 14,19 C14.5522847,19 15,18.5522847 15,18 C15,17.4477153 14.5522847,17 14,17 Z M40,17 C39.4477153,17 39,17.4477153 39,18 C39,18.5522847 39.4477153,19 40,19 C40.5522847,19 41,18.5522847 41,18 C41,17.4477153 40.5522847,17 40,17 Z M8,17 C7.44771525,17 7,17.4477153 7,18 C7,18.5522847 7.44771525,19 8,19 C8.55228475,19 9,18.5522847 9,18 C9,17.4477153 8.55228475,17 8,17 Z M37,18.027 L37.0003893,18.0488268 L37.0027519,18.1296681 L37.005,18.176 L37,18.027 Z M5.001,18.048 L5.00275187,18.1296681 L5.005,18.176 L5.001,18.048 Z M11.001,18.048 L11.0027519,18.1296681 L11.005,18.176 L11.001,18.048 Z M37.0022316,17.8832099 L37.0005596,17.9414688 L37,18 L36.999,18 L37,18.027 L37,18 L37.0022316,17.8832099 Z M42.994,17.823 L43,18 L42.9972481,17.8703319 L42.994,17.823 Z M10.996,17.87 L11,18 L10.9977422,17.8825256 L10.996,17.87 Z M16.994,17.823 L17,18 L16.9972481,17.8703319 L16.994,17.823 Z M39.9296325,7 L37,7 L37,17 L37.1707057,17 L37.1748959,16.9882237 C37.5900389,15.8291869 38.6981859,15 40,15 C41.3018141,15 42.4099611,15.8291869 42.8251041,16.9882237 L42.8292943,17 L44,17 L44,12.6055513 C44,12.4081263 43.941562,12.2151186 43.8320503,12.0508511 L40.7616828,7.4452998 C40.576217,7.16710114 40.2639857,7 39.9296325,7 Z M16.233,15.999 L16.1899696,15.9496113 C16.4674193,16.2458274 16.6854651,16.5983658 16.8251041,16.9882237 L16.8292943,17 L32,17 L32,16 L16.2361065,16 L16.233,15.999 Z M5.76534041,15.9983845 L5.76389349,16 L4,16 L4,17 L5.17070571,17 L5.17489588,16.9882237 C5.30694872,16.6195457 5.50912057,16.2842423 5.76534041,15.9983845 Z M10.232,15.999 L10.1909067,15.9506122 C10.4679103,16.2466215 10.6856224,16.5988049 10.8251041,16.9882237 L10.8292943,17 L11.1707057,17 L11.1748959,16.9882237 C11.2866071,16.6763374 11.4484987,16.3883356 11.6508411,16.1339476 L11.766,15.999 L11.7638935,16 L10.2361065,16 L10.232,15.999 Z M32,6 L4,6 L4,14 L27.3175837,14 L29.7712486,7.73237683 C29.9156985,7.36339514 30.2643919,7.11450903 30.6602888,7.0978086 L32,7.04129447 L32,6 Z" id="Shape" fill="#000000" fill-rule="nonzero"></path>
    </g>
</svg>