<?xml version="1.0" encoding="UTF-8"?>
<svg width="48px" height="24px" viewBox="0 0 48 24" version="1.1" xmlns="http://www.w3.org/2000/svg" xmlns:xlink="http://www.w3.org/1999/xlink">
    <!-- Generator: Sketch 57.1 (83088) - https://sketch.com -->
    <title>svg/truck-type-hydraulic</title>
    <desc>Created with Sketch.</desc>
    <g id="truck-type-hydraulic" stroke="none" stroke-width="1" fill="none" fill-rule="evenodd">
        <path d="M31.7827224,0.980196396 L32.3808262,3.91997051 C32.4598285,4.30827944 32.3021016,4.69159908 32.0042345,4.91709453 L33.9805807,14.8038839 C33.9933365,14.8668017 34,14.9326227 34,15 L34,18 C34,18.5522847 33.5522847,19 33,19 L16.8292943,19 L16.8251041,19.0117763 C16.4099611,20.1708131 15.3018141,21 14,21 C12.7499257,21 11.6784299,20.2354142 11.2276473,19.1483773 L11.1678602,18.992368 L11.1707057,19 L10.8292943,19 L10.8251041,19.0117763 C10.4099611,20.1708131 9.30181405,21 8,21 C6.74992566,21 5.67842989,20.2354142 5.22764729,19.1483773 L5.16786018,18.992368 L5.17070571,19 L3,19 C2.44771525,19 2,18.5522847 2,18 L1.99986018,15.100368 L0.42513182,7.3599703 C0.31502395,6.81877283 0.66449112,6.29078553 1.20568859,6.18067766 L30.6034297,0.199639626 C31.1446272,0.0895317561 31.6726145,0.438998926 31.7827224,0.980196396 Z M37.1707057,19 L36,19 C35.4477153,19 35,18.5522847 35,18 L35,6 C35,5.44771525 35.4477153,5 36,5 L39.9296325,5 C40.932692,5 41.869386,5.50130341 42.4257834,6.33589941 L45.4961509,10.9414507 C45.8246859,11.4342532 46,12.0132763 46,12.6055513 L46,18 C46,18.5522847 45.5522847,19 45,19 L42.8292943,19 L42.8251041,19.0117763 C42.4099611,20.1708131 41.3018141,21 40,21 C38.6841323,21 37.5661355,20.1528135 37.1616938,18.9741247 L37.1707057,19 Z M8,17 C7.44771525,17 7,17.4477153 7,18 C7,18.5522847 7.44771525,19 8,19 C8.55228475,19 9,18.5522847 9,18 C9,17.4477153 8.55228475,17 8,17 Z M14,17 C13.4477153,17 13,17.4477153 13,18 C13,18.5522847 13.4477153,19 14,19 C14.5522847,19 15,18.5522847 15,18 C15,17.4477153 14.5522847,17 14,17 Z M40,17 C39.4477153,17 39,17.4477153 39,18 C39,18.5522847 39.4477153,19 40,19 C40.5522847,19 41,18.5522847 41,18 C41,17.4477153 40.5522847,17 40,17 Z M42.8842837,18.8279805 L42.8911467,18.8036388 C42.8727274,18.870047 42.8520814,18.9355292 42.8292943,19 L42.8842837,18.8279805 Z M37.0111912,18.2609427 C37.0037817,18.1749476 37,18.0879154 37,18 L37.0056305,18.1853198 L37.0111912,18.2609427 Z M11,18 L11.002817,18.1311915 L11.0048602,18.167368 L11,18 Z M5,18 L5.00281703,18.1311915 L5.00486018,18.167368 L5,18 Z M37.1026088,17.2192283 C37.1225688,17.1449745 37.1453072,17.071859 37.1707057,17 L37.116855,17.1680559 L37.1026088,17.2192283 Z M5.76381942,16.0000828 L4,16 L4,17 L5.17070571,17 L5.16786018,17.006368 L5.16135298,17.0268693 C5.2926787,16.6436983 5.49940335,16.2955336 5.76381942,16.0000828 Z M11.7638194,16.0000828 L10.2361065,16 C10.4907627,16.2840487 10.6930132,16.6194392 10.8251041,16.9882237 L10.8292943,17 L11.1707057,17 L11.1678602,17.006368 L11.161353,17.0268693 C11.2926787,16.6436983 11.4994034,16.2955336 11.7638194,16.0000828 Z M39.9296325,7 L37,7 L37,17 L37.1707057,17 L37.161353,17.0268693 C37.5655071,15.8476627 38.6837624,15 40,15 C41.3018141,15 42.4099611,15.8291869 42.8251041,16.9882237 L42.8292943,17 L44,17 L44,12.6055513 C44,12.4081263 43.941562,12.2151186 43.8320503,12.0508511 L40.7616828,7.4452998 C40.576217,7.16710114 40.2639857,7 39.9296325,7 Z M32,16 L16.2361065,16 C16.4907627,16.2840487 16.6930132,16.6194392 16.8251041,16.9882237 L16.8292943,17 L32,17 L32,16 Z M10.1208602,15.878368 L10.2338602,15.997368 L10.1544159,15.9122965 L10.1208602,15.878368 Z M16.1338602,15.892368 L16.2338602,15.997368 L16.1537519,15.9116116 L16.1338602,15.892368 Z M6.78986018,15.254368 L6.76588987,15.2647844 L6.70088771,15.2951046 L6.65386018,15.318368 L6.78986018,15.254368 Z M14,15 L13.8851216,15.002159 L13.8358602,15.004368 L14,15 Z M30.0748602,5.47736799 L29.9553407,5.50773023 L28.4525546,10.3142141 C28.3438223,10.6619817 28.0545401,10.9230828 27.6974855,10.9957263 L12.9308602,13.999368 L31.7798602,13.999368 L30.0748602,5.47736799 Z M30.0222409,2.35885697 L2.58434916,7.94115913 L3.78055677,13.8207074 L26.7199424,9.15363661 L28.2143466,4.37396111 C28.318585,4.04056698 28.5892346,3.78572805 28.9282926,3.7017222 L30.2298416,3.37924714 L30.0222409,2.35885697 Z" id="Shape" fill="#000000" fill-rule="nonzero"></path>
    </g>
</svg>