<?xml version="1.0" encoding="UTF-8"?>
<svg width="48px" height="24px" viewBox="0 0 48 24" version="1.1" xmlns="http://www.w3.org/2000/svg" xmlns:xlink="http://www.w3.org/1999/xlink">
    <!-- Generator: Sketch 57.1 (83088) - https://sketch.com -->
    <title>svg/truck-type-freezer-box</title>
    <desc>Created with Sketch.</desc>
    <g id="truck-type-freezer-box" stroke="none" stroke-width="1" fill="none" fill-rule="evenodd">
        <path d="M39.9296325,5 C40.932692,5 41.869386,5.50130341 42.4257834,6.33589941 L45.4961509,10.9414507 C45.8246859,11.4342532 46,12.0132763 46,12.6055513 L46,18 C46,18.5522847 45.5522847,19 45,19 L42.8292943,19 L42.8251041,19.0117763 C42.4099611,20.1708131 41.3018141,21 40,21 C38.6981859,21 37.5900389,20.1708131 37.1748959,19.0117763 L37.1707057,19 L36,19 C35.4477153,19 35,18.5522847 35,18 L35,6 C35,5.44771525 35.4477153,5 36,5 L39.9296325,5 Z M12.5,5 C13.0522847,5 13.5,5.44771525 13.5,6 C13.5,6.55228475 13.0522847,7 12.5,7 L4,7 L4,17 L5.17070571,17 L5.17489588,16.9882237 C5.59003888,15.8291869 6.69818595,15 8,15 C9.30181405,15 10.4099611,15.8291869 10.8251041,16.9882237 L10.8292943,17 L11.1707057,17 L11.1748959,16.9882237 C11.5900389,15.8291869 12.6981859,15 14,15 C15.3018141,15 16.4099611,15.8291869 16.8251041,16.9882237 L16.8292943,17 L32,17 L32,7 L29,7 C28.4477153,7 28,6.55228475 28,6 C28,5.44771525 28.4477153,5 29,5 L33,5 C33.5522847,5 34,5.44771525 34,6 L34,18 C34,18.5522847 33.5522847,19 33,19 L16.8292943,19 L16.8251041,19.0117763 C16.4099611,20.1708131 15.3018141,21 14,21 C12.6981859,21 11.5900389,20.1708131 11.1748959,19.0117763 L11.1707057,19 L10.8292943,19 L10.8251041,19.0117763 C10.4099611,20.1708131 9.30181405,21 8,21 C6.69818595,21 5.59003888,20.1708131 5.17489588,19.0117763 L5.17070571,19 L3,19 C2.44771525,19 2,18.5522847 2,18 L2,6 C2,5.44771525 2.44771525,5 3,5 L12.5,5 Z M8,17 C7.44771525,17 7,17.4477153 7,18 C7,18.5522847 7.44771525,19 8,19 C8.55228475,19 9,18.5522847 9,18 C9,17.4477153 8.55228475,17 8,17 Z M40,17 C39.4477153,17 39,17.4477153 39,18 C39,18.5522847 39.4477153,19 40,19 C40.5522847,19 41,18.5522847 41,18 C41,17.4477153 40.5522847,17 40,17 Z M14,17 C13.4477153,17 13,17.4477153 13,18 C13,18.5522847 13.4477153,19 14,19 C14.5522847,19 15,18.5522847 15,18 C15,17.4477153 14.5522847,17 14,17 Z M16.8842837,18.8279805 L16.8973517,18.7809189 C16.8774012,18.8551221 16.854676,18.9281885 16.8292943,19 L16.8842837,18.8279805 Z M11.0109332,18.2579308 C11.0036939,18.1729156 11,18.0868892 11,18 L11.0060731,18.1924443 L11.0109332,18.2579308 Z M37,18.027 L37.0003893,18.0488268 L37.0027519,18.1296681 L37.005,18.176 L37,18.027 Z M37.0022316,17.8832099 L37.0005596,17.9414688 L37,18 L36.999,18 L37,18.027 L37,18 L37.0022316,17.8832099 Z M42.994,17.823 L43,18 L42.9972481,17.8703319 L42.994,17.823 Z M11,18 L10.9977422,17.8825256 L10.996,17.87 L11,18 Z M16.9890668,17.7420692 C16.9963061,17.8270844 17,17.9131108 17,18 L16.9939269,17.8075557 L16.9890668,17.7420692 Z M11.1026483,17.2190811 C11.1225988,17.1448779 11.145324,17.0718115 11.1707057,17 L11.1160005,17.1710284 L11.1026483,17.2190811 Z M39.9296325,7 L37,7 L37,17 L37.1707057,17 L37.1748959,16.9882237 C37.5900389,15.8291869 38.6981859,15 40,15 C41.3018141,15 42.4099611,15.8291869 42.8251041,16.9882237 L42.8292943,17 L44,17 L44,12.6055513 C44,12.4081263 43.941562,12.2151186 43.8320503,12.0508511 L40.7616828,7.4452998 C40.576217,7.16710114 40.2639857,7 39.9296325,7 Z M19.5303301,1.46966991 L20.5,2.439 L21.4696699,1.46966991 C21.7625631,1.1767767 22.2374369,1.1767767 22.5303301,1.46966991 C22.8232233,1.76256313 22.8232233,2.23743687 22.5303301,2.53033009 L21.25,3.81066017 L21.25,5.7 L22.886,4.756 L23.3556826,3.00684761 C23.462889,2.60674803 23.8741417,2.36931117 24.2742413,2.47651752 C24.6743409,2.58372388 24.9117777,2.9949766 24.8045714,3.39507618 L24.449,4.719 L25.7742413,5.07459374 C26.1743409,5.18180009 26.4117777,5.59305281 26.3045714,5.99315239 C26.197365,6.39325197 25.7861123,6.63068883 25.3860127,6.52348248 L23.6370493,6.05484914 L21.999,6.999 L23.637,7.944 L25.3860127,7.47651752 C25.7861123,7.36931117 26.197365,7.60674803 26.3045714,8.00684761 C26.4117777,8.40694719 26.1743409,8.81819991 25.7742413,8.92540626 L24.449,9.28 L24.8045714,10.6049238 C24.9117777,11.0050234 24.6743409,11.4162761 24.2742413,11.5234825 C23.8741417,11.6306888 23.462889,11.393252 23.3556826,10.9931524 L22.8870493,9.24418897 L21.25,8.299 L21.25,10.1893398 L22.5303301,11.4696699 C22.8232233,11.7625631 22.8232233,12.2374369 22.5303301,12.5303301 C22.2374369,12.8232233 21.7625631,12.8232233 21.4696699,12.5303301 L20.5,11.56 L19.5303301,12.5303301 C19.2374369,12.8232233 18.7625631,12.8232233 18.4696699,12.5303301 C18.1767767,12.2374369 18.1767767,11.7625631 18.4696699,11.4696699 L19.75,10.188 L19.75,8.298 L18.1129507,9.24418897 L17.6443174,10.9931524 C17.537111,11.393252 17.1258583,11.6306888 16.7257587,11.5234825 C16.3256591,11.4162761 16.0882223,11.0050234 16.1954286,10.6049238 L16.55,9.28 L15.2257587,8.92540626 C14.8256591,8.81819991 14.5882223,8.40694719 14.6954286,8.00684761 C14.802635,7.60674803 15.2138877,7.36931117 15.6139873,7.47651752 L17.362,7.944 L18.999,6.999 L17.3629507,6.05484914 L15.6139873,6.52348248 C15.2138877,6.63068883 14.802635,6.39325197 14.6954286,5.99315239 C14.5882223,5.59305281 14.8256591,5.18180009 15.2257587,5.07459374 L16.55,4.719 L16.1954286,3.39507618 C16.0882223,2.9949766 16.3256591,2.58372388 16.7257587,2.47651752 C17.1258583,2.36931117 17.537111,2.60674803 17.6443174,3.00684761 L18.113,4.756 L19.75,5.701 L19.75,3.811 L18.4696699,2.53033009 C18.1767767,2.23743687 18.1767767,1.76256313 18.4696699,1.46966991 C18.7625631,1.1767767 19.2374369,1.1767767 19.5303301,1.46966991 Z M5.001,18.048 L5.00275187,18.1296681 L5.005,18.176 L5.001,18.048 Z" id="Shape" fill="#000000" fill-rule="nonzero"></path>
    </g>
</svg>