<?xml version="1.0" encoding="UTF-8"?>
<svg width="24px" height="24px" viewBox="0 0 24 24" version="1.1" xmlns="http://www.w3.org/2000/svg" xmlns:xlink="http://www.w3.org/1999/xlink">
    <!-- Generator: Sketch 57.1 (83088) - https://sketch.com -->
    <title>svg/truck</title>
    <desc>Created with Sketch.</desc>
    <g id="truck" stroke="none" stroke-width="1" fill="none" fill-rule="evenodd">
        <path d="M15,6 C15.5522847,6 16,6.44771525 16,7 L16,16 C16,16.5522847 15.5522847,17 15,17 L10,17 C10,18.1045695 9.1045695,19 8,19 C6.8954305,19 6,18.1045695 6,17 C6,18.1045695 5.1045695,19 4,19 C2.8954305,19 2,18.1045695 2,17 L1,17 C0.44771525,17 0,16.5522847 0,16 L0,7 C0,6.44771525 0.44771525,6 1,6 L15,6 Z M19.6785482,8 C20.7053447,8 21.6608153,8.52514083 22.2111866,9.39197559 L23.5326384,11.4732622 C23.8378969,11.9540443 24,12.5117832 24,13.0812866 L24,16 C24,16.5522847 23.5522847,17 23,17 L22,16.9989959 L22,17 C22,18.1045695 21.1045695,19 20,19 C18.8954305,19 18,18.1045695 18,17 L18,16.999 L18,17 C17.4477153,17 17,16.5522847 17,16 L17,9 C17,8.44771525 17.4477153,8 18,8 L19.6785482,8 Z M14,8 L2,8 L2,15 L14,15 L14,8 Z M19.6785482,10 L19,10 L19,15 L22,15 L22,13.0812866 C22,12.8914522 21.9459656,12.7055392 21.8442128,12.5452785 L20.522761,10.4639919 C20.3393039,10.1750469 20.0208137,10 19.6785482,10 Z" id="Shape" fill="#000000" fill-rule="nonzero"></path>
    </g>
</svg>