<?xml version="1.0" encoding="UTF-8"?>
<svg width="48px" height="24px" viewBox="0 0 48 24" version="1.1" xmlns="http://www.w3.org/2000/svg" xmlns:xlink="http://www.w3.org/1999/xlink">
    <!-- Generator: Sketch 57.1 (83088) - https://sketch.com -->
    <title>svg/truck-type-semi</title>
    <desc>Created with Sketch.</desc>
    <g id="truck-type-semi" stroke="none" stroke-width="1" fill="none" fill-rule="evenodd">
        <path d="M14,21 C12.6981859,21 11.5900389,20.1708131 11.1748959,19.0117763 L11.1707057,19 L10.8292943,19 L10.8251041,19.0117763 C10.4099611,20.1708131 9.30181405,21 8,21 C6.69818595,21 5.59003888,20.1708131 5.17489588,19.0117763 L5.17070571,19 L3,19 C2.44771525,19 2,18.5522847 2,18 L2,5 C2,4.44771525 2.44771525,4 3,4 L30,4 C30.5519476,4 30.9994533,4.44716876 31,4.99898861 L33.9296325,5 C34.932692,5 35.869386,5.50130341 36.4257834,6.33589941 L39.4961509,10.9414507 C39.8246859,11.4342532 40,12.0132763 40,12.6055513 L40,18 C40,18.5522847 39.5522847,19 39,19 L36.8292943,19 L36.8251041,19.0117763 C36.4099611,20.1708131 35.3018141,21 34,21 C32.6981859,21 31.5900389,20.1708131 31.1748959,19.0117763 L31.1707057,19 L16.8292943,19 L16.8251041,19.0117763 C16.4099611,20.1708131 15.3018141,21 14,21 Z M34,17 C33.4477153,17 33,17.4477153 33,18 C33,18.5522847 33.4477153,19 34,19 C34.5522847,19 35,18.5522847 35,18 C35,17.4477153 34.5522847,17 34,17 Z M8,17 C7.44771525,17 7,17.4477153 7,18 C7,18.5522847 7.44771525,19 8,19 C8.55228475,19 9,18.5522847 9,18 C9,17.4477153 8.55228475,17 8,17 Z M14,17 C13.4477153,17 13,17.4477153 13,18 C13,18.5522847 13.4477153,19 14,19 C14.5522847,19 15,18.5522847 15,18 C15,17.4477153 14.5522847,17 14,17 Z M16.8842837,18.8279805 L16.8973517,18.7809189 C16.8774012,18.8551221 16.854676,18.9281885 16.8292943,19 L16.8842837,18.8279805 Z M11.0330427,18.4467808 C11.0213311,18.3683439 11.0126559,18.2889149 11.0071405,18.2086172 L11.0249957,18.3890493 L11.0330427,18.4467808 Z M31.009,18.229 L31.017768,18.3283968 L31.02,18.349 L31.009,18.229 Z M36.994,17.823 L37,18 L36.9972481,17.8703319 L36.994,17.823 Z M10.994,17.823 L11,18 L10.9972481,17.8703319 L10.994,17.823 Z M16.9939269,17.8075557 L16.9910238,17.766195 C16.9969712,17.8433491 17,17.9213208 17,18 L16.9939269,17.8075557 Z M11.1026483,17.2190811 C11.1225988,17.1448779 11.145324,17.0718115 11.1707057,17 L11.1188605,17.1611251 L11.1026483,17.2190811 Z M28.999,16 L16.2361945,16.0000983 C16.4916869,16.2855821 16.6933151,16.6202822 16.8251041,16.9882237 L16.8292943,17 L28.999,16.999 L28.999,16 Z M11.7638055,16.0000983 L10.2361945,16.0000983 C10.4916869,16.2855821 10.6933151,16.6202822 10.8251041,16.9882237 L10.8292943,17 L11.1707057,17 L11.1748959,16.9882237 C11.3066849,16.6202822 11.5083131,16.2855821 11.7638055,16.0000983 Z M5.76380548,16.0000983 L4,16 L4,17 L5.17070571,17 L5.17489588,16.9882237 C5.30668491,16.6202822 5.50831308,16.2855821 5.76380548,16.0000983 Z M33.9296325,7 L31,6.999 L31,16.999 L31.1707057,17 L31.1748959,16.9882237 C31.5900389,15.8291869 32.6981859,15 34,15 C35.3018141,15 36.4099611,15.8291869 36.8251041,16.9882237 L36.8292943,17 L38,17 L38,12.6055513 C38,12.4081263 37.941562,12.2151186 37.8320503,12.0508511 L34.7616828,7.4452998 C34.576217,7.16710114 34.2639857,7 33.9296325,7 Z M28.999,6 L4,6 L4,13.999 L28.999,13.999 L28.999,6 Z M5.005,18.176 L5.001,18.044 L5.00275187,18.1296681 L5.005,18.176 Z" id="Shape" fill="#000000" fill-rule="nonzero"></path>
    </g>
</svg>