<?xml version="1.0" encoding="UTF-8"?>
<svg width="48px" height="24px" viewBox="0 0 48 24" version="1.1" xmlns="http://www.w3.org/2000/svg" xmlns:xlink="http://www.w3.org/1999/xlink">
    <!-- Generator: Sketch 57.1 (83088) - https://sketch.com -->
    <title>svg/truck-type-dry-box</title>
    <desc>Created with Sketch.</desc>
    <g id="truck-type-dry-box" stroke="none" stroke-width="1" fill="none" fill-rule="evenodd">
        <path d="M39.9296325,5 C40.932692,5 41.869386,5.50130341 42.4257834,6.33589941 L45.4961509,10.9414507 C45.8246859,11.4342532 46,12.0132763 46,12.6055513 L46,18 C46,18.5522847 45.5522847,19 45,19 L42.8292943,19 L42.8251041,19.0117763 C42.4099611,20.1708131 41.3018141,21 40,21 C38.6981859,21 37.5900389,20.1708131 37.1748959,19.0117763 L37.1707057,19 L36,19 C35.4477153,19 35,18.5522847 35,18 L35,6 C35,5.44771525 35.4477153,5 36,5 L39.9296325,5 Z M12.5,5 C13.0522847,5 13.5,5.44771525 13.5,6 C13.5,6.55228475 13.0522847,7 12.5,7 L4,7 L4,17 L5.17070571,17 L5.17489588,16.9882237 C5.59003888,15.8291869 6.69818595,15 8,15 C9.30181405,15 10.4099611,15.8291869 10.8251041,16.9882237 L10.8292943,17 L11.1707057,17 L11.1748959,16.9882237 C11.5900389,15.8291869 12.6981859,15 14,15 C15.3018141,15 16.4099611,15.8291869 16.8251041,16.9882237 L16.8292943,17 L32,17 L32,7 L28,7 C27.4477153,7 27,6.55228475 27,6 C27,5.44771525 27.4477153,5 28,5 L33,5 C33.5522847,5 34,5.44771525 34,6 L34,18 C34,18.5522847 33.5522847,19 33,19 L16.8292943,19 L16.8251041,19.0117763 C16.4099611,20.1708131 15.3018141,21 14,21 C12.6981859,21 11.5900389,20.1708131 11.1748959,19.0117763 L11.1707057,19 L10.8292943,19 L10.8251041,19.0117763 C10.4099611,20.1708131 9.30181405,21 8,21 C6.69818595,21 5.59003888,20.1708131 5.17489588,19.0117763 L5.17070571,19 L3,19 C2.44771525,19 2,18.5522847 2,18 L2,6 C2,5.44771525 2.44771525,5 3,5 L12.5,5 Z M40,17 C39.4477153,17 39,17.4477153 39,18 C39,18.5522847 39.4477153,19 40,19 C40.5522847,19 41,18.5522847 41,18 C41,17.4477153 40.5522847,17 40,17 Z M8,17 C7.44771525,17 7,17.4477153 7,18 C7,18.5522847 7.44771525,19 8,19 C8.55228475,19 9,18.5522847 9,18 C9,17.4477153 8.55228475,17 8,17 Z M14,17 C13.4477153,17 13,17.4477153 13,18 C13,18.5522847 13.4477153,19 14,19 C14.5522847,19 15,18.5522847 15,18 C15,17.4477153 14.5522847,17 14,17 Z M42.883,18.8288937 L42.848,18.9408937 L42.8653597,18.8913563 L42.883,18.8288937 Z M10.883,18.8288937 L10.848,18.9408937 L10.8653597,18.8913563 L10.883,18.8288937 Z M16.8839995,18.8289716 L16.8973517,18.7809189 C16.8774012,18.8551221 16.854676,18.9281885 16.8292943,19 L16.8839995,18.8289716 Z M11.0061372,18.1934542 L11.0109332,18.2579308 C11.0036939,18.1729156 11,18.0868892 11,18 L11.0061372,18.1934542 Z M37,18.0268937 L37,18.0488937 L37.0016179,18.0994669 L37.0027519,18.1296681 L37.005,18.1758937 L37,18.0268937 Z M5.00275187,18.1296681 L5.005,18.1758937 L5.001,18.0488937 L5.00275187,18.1296681 Z M37.002,17.8828937 L37.0005638,17.9412472 L37,18 L37,18.0268937 L37,18 L37.002,17.8828937 Z M42.994,17.8228937 L43,18 L42.9972481,17.8703319 L42.994,17.8228937 Z M16.9890668,17.7420692 C16.9963061,17.8270844 17,17.9131108 17,18 L16.9939269,17.8075557 L16.9890668,17.7420692 Z M11.1026483,17.2190811 C11.1225988,17.1448779 11.145324,17.0718115 11.1707057,17 L11.1157163,17.1720195 L11.1026483,17.2190811 Z M39.9296325,7 L37,7 L37,17 L37.1707057,17 L37.1748959,16.9882237 C37.5900389,15.8291869 38.6981859,15 40,15 C41.3018141,15 42.4099611,15.8291869 42.8251041,16.9882237 L42.8292943,17 L44,17 L44,12.6055513 C44,12.4081263 43.941562,12.2151186 43.8320503,12.0508511 L40.7616828,7.4452998 C40.576217,7.16710114 40.2639857,7 39.9296325,7 Z M21.3047002,2.16794971 C21.7642289,2.47430216 21.8884028,3.09517151 21.5820503,3.5547002 C20.8268072,4.68756491 20.8268072,6.16259359 21.4571068,6.79289322 C22.8268072,8.16259359 22.8268072,10.6875649 21.5820503,12.5547002 C21.2756978,13.0142289 20.6548285,13.1384028 20.1952998,12.8320503 C19.7357711,12.5256978 19.6115972,11.9048285 19.9179497,11.4452998 C20.6731928,10.3124351 20.6731928,8.83740641 20.0428932,8.20710678 C18.6731928,6.83740641 18.6731928,4.31243509 19.9179497,2.4452998 C20.2243022,1.98577112 20.8451715,1.86159725 21.3047002,2.16794971 Z M25.3047002,2.16794971 C25.7642289,2.47430216 25.8884028,3.09517151 25.5820503,3.5547002 C24.8268072,4.68756491 24.8268072,6.16259359 25.4571068,6.79289322 C26.8268072,8.16259359 26.8268072,10.6875649 25.5820503,12.5547002 C25.2756978,13.0142289 24.6548285,13.1384028 24.1952998,12.8320503 C23.7357711,12.5256978 23.6115972,11.9048285 23.9179497,11.4452998 C24.6731928,10.3124351 24.6731928,8.83740641 24.0428932,8.20710678 C22.6731928,6.83740641 22.6731928,4.31243509 23.9179497,2.4452998 C24.2243022,1.98577112 24.8451715,1.86159725 25.3047002,2.16794971 Z M17.3047002,2.16794971 C17.7642289,2.47430216 17.8884028,3.09517151 17.5820503,3.5547002 C16.8268072,4.68756491 16.8268072,6.16259359 17.4571068,6.79289322 C18.8268072,8.16259359 18.8268072,10.6875649 17.5820503,12.5547002 C17.2756978,13.0142289 16.6548285,13.1384028 16.1952998,12.8320503 C15.7357711,12.5256978 15.6115972,11.9048285 15.9179497,11.4452998 C16.6731928,10.3124351 16.6731928,8.83740641 16.0428932,8.20710678 C14.6731928,6.83740641 14.6731928,4.31243509 15.9179497,2.4452998 C16.2243022,1.98577112 16.8451715,1.86159725 17.3047002,2.16794971 Z" id="Shape" fill="#000000" fill-rule="nonzero"></path>
    </g>
</svg>