<?xml version="1.0" encoding="UTF-8"?>
<svg width="24px" height="24px" viewBox="0 0 24 24" version="1.1" xmlns="http://www.w3.org/2000/svg" xmlns:xlink="http://www.w3.org/1999/xlink">
    <!-- Generator: Sketch 57.1 (83088) - https://sketch.com -->
    <title>svg/weight</title>
    <desc>Created with Sketch.</desc>
    <g id="weight" stroke="none" stroke-width="1" fill="none" fill-rule="evenodd">
        <g id="Group-2" transform="translate(2.000000, 5.500000)" fill="#000000" fill-rule="nonzero">
            <path d="M3.8672954,2 L2.15300969,14 L17.8469903,14 L16.1327046,2 L3.8672954,2 Z M3,0 L17,0 C17.4976504,0 17.9195711,0.365929905 17.9899495,0.858578644 L19.9899495,14.8585786 C20.0760114,15.4610118 19.6085493,16 19,16 L1,16 C0.391450652,16 -0.0760113677,15.4610118 0.0100505063,14.8585786 L2.01005051,0.858578644 C2.0804289,0.365929905 2.50234962,0 3,0 Z" id="Rectangle"></path>
            <g id="Group" transform="translate(7.000000, 4.800000)">
                <path d="M1,2 C0.44771525,2 0,1.55228475 0,1 C0,0.44771525 0.44771525,0 1,0 L5,0 C5.55228475,0 6,0.44771525 6,1 C6,1.55228475 5.55228475,2 5,2 L1,2 Z" id="Line"></path>
                <path d="M2,1 C2,0.44771525 2.44771525,0 3,0 C3.55228475,0 4,0.44771525 4,1 L4,5.58333333 C4,6.13561808 3.55228475,6.58333333 3,6.58333333 C2.44771525,6.58333333 2,6.13561808 2,5.58333333 L2,1 Z" id="Line-3"></path>
            </g>
        </g>
        <path d="M13.7324356,5.5 C13.9026057,5.20582663 14,4.86428714 14,4.5 C14,3.3954305 13.1045695,2.5 12,2.5 C10.8954305,2.5 10,3.3954305 10,4.5 C10,4.86428714 10.0973943,5.20582663 10.2675644,5.5 L8.12601749,5.5 C8.043753,5.18038008 8,4.84529957 8,4.5 C8,2.290861 9.790861,0.5 12,0.5 C14.209139,0.5 16,2.290861 16,4.5 C16,4.84529957 15.956247,5.18038008 15.8739825,5.5 L13.7324356,5.5 L13.7324356,5.5 Z" id="Path" fill="#000000" fill-rule="nonzero"></path>
    </g>
</svg>