<?xml version="1.0" encoding="UTF-8"?>
<svg width="24px" height="24px" viewBox="0 0 24 24" version="1.1" xmlns="http://www.w3.org/2000/svg" xmlns:xlink="http://www.w3.org/1999/xlink">
    <!-- Generator: Sketch 57.1 (83088) - https://sketch.com -->
    <title>svg/wheat</title>
    <desc>Created with Sketch.</desc>
    <g id="wheat" stroke="none" stroke-width="1" fill="none" fill-rule="evenodd">
        <path d="M17,7.07088886 L17,4.60001812 C14.8500451,5.03643593 13.2010294,6.85235473 13.0170889,9.08363845 C12.1850603,9.92685888 11.5654831,10.9802316 11.2451703,12.1569436 C11.0942683,11.9847849 11,11.7580505 11,11.5 L11,9.5 C11,5.63400675 14.1340068,2.5 18,2.5 C18.5522847,2.5 19,2.94771525 19,3.5 L19,8 C19,7.44771525 18.5522847,7 18,7 C17.6604787,7 17.326603,7.02417196 17,7.07088886 L17,7.07088886 Z" id="Path" fill="#000000" fill-rule="nonzero"></path>
        <path d="M7,7.07088886 C6.67339702,7.02417196 6.33952134,7 6,7 C5.44771525,7 5,7.44771525 5,8 L5,3.5 C5,2.94771525 5.44771525,2.5 6,2.5 C9.86599325,2.5 13,5.63400675 13,9.5 L13,11.5 C13,11.7580505 12.9057317,11.9847849 12.7548297,12.1569436 C12.4345169,10.9802316 11.8149397,9.92685888 10.9829111,9.08363845 C10.7989706,6.85235473 9.1499549,5.03643593 7,4.60001812 L7,7.07088886 Z" id="Path" fill="#000000" fill-rule="nonzero"></path>
        <path d="M17,11.5708889 L17,9.10001812 C14.8500451,9.53643593 13.2010294,11.3523547 13.0170889,13.5836384 C12.1849964,14.4269237 11.5653878,15.4803936 11.2450964,16.657215 C11.094422,16.4855692 11,16.2591898 11,16 L11,14 C11,10.1340068 14.1340068,7 18,7 C18.5522847,7 19,7.44771525 19,8 L19,12.5 C19,11.9477153 18.5522847,11.5 18,11.5 C17.6604787,11.5 17.326603,11.524172 17,11.5708889 L17,11.5708889 Z" id="Path" fill="#000000" fill-rule="nonzero"></path>
        <path d="M13.1276898,17.3723102 C14.9835933,16.9444971 16.4444971,15.4835933 16.8723102,13.6276898 C15.0164067,14.0555029 13.5555029,15.5164067 13.1276898,17.3723102 Z M19,12.5 C19,16.3659932 15.8659932,19.5 12,19.5 C11.4477153,19.5 11,19.0522847 11,18.5 C11,14.6340068 14.1340068,11.5 18,11.5 C18.5522847,11.5 19,11.9477153 19,12.5 Z" id="Rectangle" fill="#000000" fill-rule="nonzero"></path>
        <path d="M7,9.10001812 L7,11.5708889 C6.67339702,11.524172 6.33952134,11.5 6,11.5 C5.44771525,11.5 5,11.9477153 5,12.5 L5,8 C5,7.44771525 5.44771525,7 6,7 C9.86599325,7 13,10.1340068 13,14 L13,16 C13,16.2591898 12.905578,16.4855692 12.7549036,16.657215 C12.4346122,15.4803936 11.8150036,14.4269237 10.9829111,13.5836384 C10.7989706,11.3523547 9.1499549,9.53643593 7,9.10001812 Z" id="Path" fill="#000000" fill-rule="nonzero"></path>
        <path d="M10.8723102,17.3723102 C10.4444971,15.5164067 8.9835933,14.0555029 7.12768976,13.6276898 C7.55550288,15.4835933 9.0164067,16.9444971 10.8723102,17.3723102 Z M5,12.5 C5,11.9477153 5.44771525,11.5 6,11.5 C9.86599325,11.5 13,14.6340068 13,18.5 C13,19.0522847 12.5522847,19.5 12,19.5 C8.13400675,19.5 5,16.3659932 5,12.5 Z" id="Shape" fill="#000000" fill-rule="nonzero"></path>
        <path d="M11,17.1 C11,16.5477153 11.4477153,16.1 12,16.1 C12.5522847,16.1 13,16.5477153 13,17.1 L13,22.4902737 C13,23.0425585 12.5522847,23.4902737 12,23.4902737 C11.4477153,23.4902737 11,23.0425585 11,22.4902737 L11,17.1 Z" id="Line-2" fill="#000000" fill-rule="nonzero"></path>
    </g>
</svg>